<?xml version="1.0" encoding="utf-8"?>
<!-- Generator: Adobe Illustrator 23.0.3, SVG Export Plug-In . SVG Version: 6.00 Build 0)  -->
<svg version="1.1" id="Layer_1" xmlns="http://www.w3.org/2000/svg" xmlns:xlink="http://www.w3.org/1999/xlink" x="0px" y="0px"
	 viewBox="0 0 288 288" style="enable-background:new 0 0 288 288;" xml:space="preserve">
<style type="text/css">
	.st0{fill:#273B7A;}
	.st1{fill:#FED9CA;}
	.st2{fill:#121149;}
	.st3{fill:#D45446;}
	.st4{fill:#E46A5D;}
	.st5{fill:#D04E41;}
	.st6{fill:#BF4739;}
	.st7{fill:#D86B2B;}
	.st8{fill:#BF3C30;}
	.st9{fill:#BB382D;}
	.st10{fill:#CD4C40;}
	.st11{fill:#AC3327;}
	.st12{fill:#CEEAF2;}
	.st13{fill:#FFFFFF;}
	.st14{fill:#3194B0;}
	.st15{fill:#2B8199;}
	.st16{fill:#6EBEC5;}
</style>
<g>
	<path class="st0" d="M144,0C64.5,0,0,64.5,0,144s64.5,144,144,144s144-64.5,144-144S223.5,0,144,0L144,0z"/>
	<path class="st1" d="M143.9,288h0.1H143.9L143.9,288z M144.1,288H144H144.1L144.1,288z M143.8,288L143.8,288L143.8,288L143.8,288z
		 M144.2,288L144.2,288L144.2,288L144.2,288z M144.3,288L144.3,288L144.3,288L144.3,288z M144.5,288L144.5,288L144.5,288L144.5,288z
		 M144.6,288L144.6,288L144.6,288L144.6,288z M144.7,288L144.7,288L144.7,288L144.7,288z M144.8,288L144.8,288L144.8,288L144.8,288z
		 M144.9,288L144.9,288L144.9,288L144.9,288z M145,288L145,288L145,288L145,288z M145.1,288L145.1,288L145.1,288L145.1,288z
		 M145.2,288L145.2,288L145.2,288L145.2,288z M145.4,288L145.4,288L145.4,288L145.4,288z M145.5,288L145.5,288L145.5,288L145.5,288z
		 M145.6,288L145.6,288L145.6,288L145.6,288z M145.7,288L145.7,288L145.7,288L145.7,288z M145.8,288L145.8,288L145.8,288L145.8,288z
		 M145.9,288L145.9,288L145.9,288L145.9,288z M146,288L146,288L146,288L146,288z M146.1,288L146.1,288L146.1,288L146.1,288z
		 M146.2,288L146.2,288L146.2,288L146.2,288z M146.9,288L146.9,288L146.9,288L146.9,288z M147,288L147,288L147,288L147,288z
		 M147.1,288L147.1,288L147.1,288L147.1,288z M147.2,288L147.2,288L147.2,288L147.2,288z M147.3,288L147.3,288L147.3,288L147.3,288z
		 M147.4,288L147.4,288L147.4,288L147.4,288z M147.6,288L147.6,288L147.6,288L147.6,288z M147.7,288L147.7,288L147.7,288L147.7,288z
		 M147.8,288L147.8,288L147.8,288L147.8,288z"/>
	<path class="st2" d="M43.9,129.4L43.9,129.4L43.9,129.4L43.9,129.4L43.9,129.4z M257.9,124.5L257.9,124.5l-34,34h-36.6h36.6v29.4
		h-82.6v8.5v7.9v9h-78H43.9v-54.6v-29.4l0,0l0,0v29.4v54.6l73.5,72.2c8.6,1.6,17.4,2.5,26.4,2.5l0,0h0.1h0.1h0.1h0h0.1h0h0.1h0.1
		h0.1h0.1h0.1h0h0.1h0.1h0.1h0.1h0.1h0.1h0.1h0.1h0.1h0.1h0.1h0.1h0.1h0.1h0.1h0.1h0.1h0.1h0.1h0.1h0.1h0.1h0h0.1h0h0.1h0h0.1h0
		l0.6,0l0,0l0.1,0h0l0.1,0h0l0.1,0h0l0.1,0h0l0.1,0h0l0.1,0h0l0.1,0h0l0.1,0h0c74.2-1.9,134.5-60,139.8-133.3L257.9,124.5
		L257.9,124.5z M221.1,95.3l-29.2,29.2l0,0L221.1,95.3L221.1,95.3z M221.1,95.3L221.1,95.3v29.2h26.7L221.1,95.3L221.1,95.3z
		 M161.1,51.1c-0.9,0-1.8,1.1-2.5,3.2l-8.3,25.9l-9-10v8.9v7.9v8.5h43.6h20.9l0,0c-0.4-0.5-43-42.9-43.5-43.5
		C162,51.3,161.5,51.1,161.1,51.1L161.1,51.1z"/>
	<polygon class="st3" points="80.7,187.9 80.7,158.5 223.9,158.5 223.9,187.9 	"/>
	<polygon class="st4" points="80.7,158.5 114.7,124.5 257.9,124.5 223.9,158.5 	"/>
	<path class="st3" d="M234.5,130.7l-21.6,21.6c-1.2,1.2-0.2,2.1,2.1,2.1c2.3,0,5.1-0.9,6.3-2.1l21.6-21.6c1.2-1.2,0.2-2.1-2.1-2.1
		C238.4,128.6,235.6,129.5,234.5,130.7L234.5,130.7z M214,135.8c-2.3,0-5.1,0.9-6.3,2.1c-1.2,1.2-0.2,2.1,2.1,2.1
		c2.3,0,5.1-0.9,6.3-2.1C217.3,136.8,216.3,135.8,214,135.8L214,135.8z M206.8,143c-2.3,0-5.1,0.9-6.3,2.1c-1.2,1.2-0.2,2.1,2.1,2.1
		c2.3,0,5.1-0.9,6.3-2.1C210.1,144,209.1,143,206.8,143L206.8,143z M223.6,129.2c-0.4-0.4-1.2-0.6-2.3-0.6c-1.1,0-2.4,0.2-3.6,0.6
		c-1.2,0.4-2.1,0.9-2.7,1.5c-0.5,0.5-0.6,1.1-0.3,1.5c0.4,0.4,1.2,0.6,2.4,0.6c1.1,0,2.4-0.2,3.6-0.6
		C222.9,131.4,224.4,130,223.6,129.2L223.6,129.2z M201.9,150.9c-0.4-0.4-1.2-0.6-2.3-0.6c-1.1,0-2.4,0.2-3.6,0.6
		c-1.2,0.4-2.1,0.9-2.7,1.5c-0.6,0.6-0.6,1.1-0.3,1.5c0.4,0.4,1.2,0.6,2.4,0.6c1.1,0,2.4-0.2,3.6-0.6
		C201.3,153,202.7,151.7,201.9,150.9L201.9,150.9z M182.2,152.3l21.6-21.6c1.2-1.2,0.2-2.1-2.1-2.1s-5.1,0.9-6.3,2.1l-21.6,21.6
		c-1.2,1.2-0.2,2.1,2.1,2.1C178.2,154.4,181,153.5,182.2,152.3L182.2,152.3z M154,153.8c0.4,0.4,1.2,0.6,2.3,0.6s2.4-0.2,3.6-0.6
		c2.3-0.8,3.7-2.2,3-3c-0.4-0.4-1.2-0.6-2.4-0.6c-1.1,0-2.4,0.2-3.6,0.6c-1.2,0.4-2.2,0.9-2.7,1.5
		C153.7,152.9,153.6,153.4,154,153.8L154,153.8z M163.6,147.2c2.3,0,5.1-0.9,6.3-2.1c1.2-1.2,0.2-2.1-2.1-2.1
		c-2.3,0-5.1,0.9-6.3,2.1C160.3,146.3,161.3,147.2,163.6,147.2L163.6,147.2z M175.9,130.7c-0.5,0.5-0.6,1.1-0.2,1.5
		c0.4,0.4,1.2,0.6,2.3,0.6c1.1,0,2.4-0.2,3.6-0.6c2.3-0.8,3.7-2.2,3-3c-0.4-0.4-1.2-0.6-2.4-0.6c-1.1,0-2.4,0.2-3.6,0.6
		C177.4,129.6,176.5,130.1,175.9,130.7L175.9,130.7z M170.8,140c2.3,0,5.1-0.9,6.3-2.1c1.2-1.2,0.2-2.1-2.1-2.1
		c-2.3,0-5.1,0.9-6.3,2.1C167.6,139.1,168.5,140,170.8,140L170.8,140z M143.1,152.3l21.6-21.6c1.2-1.2,0.2-2.1-2.1-2.1
		c-2.3,0-5.1,0.9-6.3,2.1l-21.6,21.6c-1.2,1.2-0.2,2.1,2.1,2.1C139.2,154.4,142,153.5,143.1,152.3L143.1,152.3z M124.6,147.2
		c2.3,0,5.1-0.9,6.3-2.1c1.2-1.2,0.2-2.1-2.1-2.1c-2.3,0-5.1,0.9-6.3,2.1C121.3,146.3,122.2,147.2,124.6,147.2L124.6,147.2z
		 M131.8,140c2.3,0,5.1-0.9,6.3-2.1c1.2-1.2,0.2-2.1-2.1-2.1c-2.3,0-5.1,0.9-6.3,2.1C128.5,139.1,129.4,140,131.8,140L131.8,140z
		 M115,153.8c0.4,0.4,1.2,0.6,2.4,0.6c1.1,0,2.4-0.2,3.6-0.6c2.3-0.8,3.7-2.2,3-3c-0.4-0.4-1.2-0.6-2.3-0.6c-1.1,0-2.4,0.2-3.6,0.6
		c-1.2,0.4-2.2,0.9-2.7,1.5C114.7,152.9,114.6,153.4,115,153.8L115,153.8z M136.9,130.7c-0.5,0.5-0.6,1.1-0.2,1.5
		c0.4,0.4,1.2,0.6,2.4,0.6c1.1,0,2.4-0.2,3.6-0.6c2.3-0.8,3.7-2.2,3-3c-0.4-0.4-1.2-0.6-2.3-0.6c-1.1,0-2.4,0.2-3.6,0.6
		C138.4,129.6,137.4,130.1,136.9,130.7L136.9,130.7z M104.1,152.3l21.6-21.6c1.2-1.2,0.2-2.1-2.1-2.1c-2.3,0-5.1,0.9-6.3,2.1
		l-21.6,21.6c-1.2,1.2-0.2,2.1,2.1,2.1C100.1,154.4,102.9,153.5,104.1,152.3L104.1,152.3z"/>
	<path class="st5" d="M195.5,158.5h-7.9v0.2h0.2v29.2h-0.2h7.9V158.5L195.5,158.5z M215,158.5h-7.9v29.4h7.9V158.5L215,158.5z"/>
	<polygon class="st6" points="257.9,153.9 223.9,187.9 223.9,158.5 257.9,124.5 	"/>
	<polygon class="st3" points="43.9,158.7 43.9,129.4 187.1,129.4 187.1,158.7 	"/>
	<polygon class="st4" points="43.9,129.4 77.9,95.3 221.1,95.3 187.1,129.4 	"/>
	<path class="st3" d="M197.7,101.5L176,123.2c-1.2,1.2-0.2,2.1,2.1,2.1s5.1-0.9,6.3-2.1l21.6-21.6c1.2-1.2,0.2-2.1-2.1-2.1
		C201.7,99.4,198.8,100.4,197.7,101.5L197.7,101.5z M177.2,106.6c-2.3,0-5.1,0.9-6.3,2.1c-1.2,1.2-0.2,2.1,2.1,2.1
		c2.3,0,5.1-0.9,6.3-2.1C180.5,107.6,179.5,106.6,177.2,106.6L177.2,106.6z M170,113.9c-2.3,0-5.1,0.9-6.3,2.1
		c-1.2,1.2-0.2,2.1,2.1,2.1c2.3,0,5.1-0.9,6.3-2.1C173.3,114.8,172.3,113.9,170,113.9L170,113.9z M186.8,100
		c-0.4-0.4-1.2-0.6-2.3-0.6c-1.1,0-2.4,0.2-3.6,0.6c-1.2,0.4-2.1,0.9-2.7,1.5c-0.5,0.5-0.6,1.1-0.3,1.5c0.4,0.4,1.2,0.6,2.4,0.6
		c1.1,0,2.4-0.2,3.6-0.6C186.2,102.2,187.6,100.8,186.8,100L186.8,100z M165.1,121.7c-0.4-0.4-1.2-0.6-2.3-0.6
		c-1.1,0-2.4,0.2-3.6,0.6c-1.2,0.4-2.1,0.9-2.7,1.5c-0.6,0.6-0.6,1.1-0.3,1.5c0.4,0.4,1.2,0.6,2.4,0.6c1.1,0,2.4-0.2,3.6-0.6
		C164.5,123.9,165.9,122.5,165.1,121.7L165.1,121.7z M145.4,123.2l21.6-21.6c1.2-1.2,0.2-2.1-2.1-2.1c-2.3,0-5.1,0.9-6.3,2.1
		L137,123.2c-1.2,1.2-0.2,2.1,2.1,2.1C141.4,125.3,144.2,124.3,145.4,123.2L145.4,123.2z M117.2,124.7c0.4,0.4,1.2,0.6,2.3,0.6
		s2.4-0.2,3.6-0.6c2.3-0.8,3.7-2.2,3-3c-0.4-0.4-1.2-0.6-2.4-0.6c-1.1,0-2.4,0.2-3.6,0.6c-1.2,0.4-2.2,0.9-2.7,1.5
		C116.9,123.7,116.8,124.3,117.2,124.7L117.2,124.7z M126.8,118c2.3,0,5.1-0.9,6.3-2.1c1.2-1.2,0.2-2.1-2.1-2.1
		c-2.3,0-5.1,0.9-6.3,2.1C123.5,117.1,124.5,118,126.8,118L126.8,118z M139.1,101.5c-0.5,0.5-0.6,1.1-0.2,1.5
		c0.4,0.4,1.2,0.6,2.3,0.6c1.1,0,2.4-0.2,3.6-0.6c2.3-0.8,3.7-2.2,3-3c-0.4-0.4-1.2-0.6-2.4-0.6c-1.1,0-2.4,0.2-3.6,0.6
		C140.7,100.4,139.7,101,139.1,101.5L139.1,101.5z M134,110.8c2.3,0,5.1-0.9,6.3-2.1c1.2-1.2,0.2-2.1-2.1-2.1
		c-2.3,0-5.1,0.9-6.3,2.1C130.8,109.9,131.7,110.8,134,110.8L134,110.8z M106.3,123.2l21.6-21.6c1.2-1.2,0.2-2.1-2.1-2.1
		c-2.3,0-5.1,0.9-6.3,2.1L98,123.2c-1.2,1.2-0.2,2.1,2.1,2.1C102.4,125.3,105.2,124.3,106.3,123.2L106.3,123.2z M87.8,118
		c2.3,0,5.1-0.9,6.3-2.1c1.2-1.2,0.2-2.1-2.1-2.1c-2.3,0-5.1,0.9-6.3,2.1C84.5,117.1,85.4,118,87.8,118L87.8,118z M95,110.8
		c2.3,0,5.1-0.9,6.3-2.1c1.2-1.2,0.2-2.1-2.1-2.1c-2.3,0-5.1,0.9-6.3,2.1C91.7,109.9,92.7,110.8,95,110.8L95,110.8z M78.2,124.6
		c0.4,0.4,1.2,0.6,2.4,0.6c1.1,0,2.4-0.2,3.6-0.6c2.3-0.8,3.7-2.2,2.9-3c-0.4-0.4-1.2-0.6-2.3-0.6c-1.1,0-2.4,0.2-3.6,0.6
		c-1.2,0.4-2.2,0.9-2.7,1.5C77.9,123.7,77.8,124.3,78.2,124.6L78.2,124.6z M100.1,101.5c-0.5,0.5-0.6,1.1-0.2,1.5
		c0.4,0.4,1.2,0.6,2.4,0.6c1.1,0,2.4-0.2,3.6-0.6c2.3-0.8,3.7-2.2,3-3c-0.4-0.4-1.2-0.6-2.3-0.6c-1.1,0-2.4,0.2-3.6,0.6
		C101.6,100.4,100.6,101,100.1,101.5L100.1,101.5z M67.3,123.2l21.6-21.6c1.2-1.2,0.2-2.1-2.1-2.1c-2.3,0-5.1,0.9-6.3,2.1
		l-21.6,21.6c-1.2,1.2-0.2,2.1,2.1,2.1C63.3,125.3,66.1,124.3,67.3,123.2L67.3,123.2z"/>
	<polygon class="st5" points="178.2,129.4 170.3,129.4 170.3,145 178.2,151.3 	"/>
	<polygon class="st5" points="158.7,129.4 150.9,129.4 158.7,135.6 	"/>
	<polygon class="st6" points="221.1,124.7 187.1,158.7 187.1,129.4 221.1,95.3 	"/>
	<polygon class="st7" points="184.9,95.3 141.3,95.3 141.3,95.3 	"/>
	<path class="st8" d="M148.4,158.7h-7.1v6.4v11.6v7.9v3.2h7.1V158.7L148.4,158.7z M167.9,158.7h-11.6v29.2h11.6V158.7L167.9,158.7z
		 M187.1,158.5L187.1,158.5v0.2h-11.2v29.2h11.6v-29.2h-0.1l-0.2-0.1l-0.1,0.1L187.1,158.5L187.1,158.5z"/>
	<path class="st9" d="M187.7,158.7h-0.2v29.2h0.2V158.7L187.7,158.7z M156.3,158.7h-7.9v29.2h7.9V158.7L156.3,158.7z M175.9,158.7
		h-7.9v29.2h7.9V158.7L175.9,158.7z"/>
	<polygon class="st8" points="150.7,129.4 141.3,129.4 141.3,137.6 141.3,145.6 141.3,157.2 141.3,158.7 148.4,158.7 156.3,158.7 
		167.9,158.7 175.9,158.7 187.1,158.7 187.1,158.5 187.1,158.5 178.2,151.3 178.2,158.7 170.3,158.7 170.3,145 158.7,135.6 
		158.7,158.7 150.7,158.7 	"/>
	<path class="st10" d="M184.9,95.3h-43.6v3.2v1.7l0.6-0.2c1.2-0.4,2.5-0.6,3.6-0.6c1.1,0,2,0.2,2.4,0.6c0.8,0.8-0.6,2.2-3,3
		c-1.2,0.4-2.5,0.6-3.5,0.6v2.8v11.6v0.8l17.4-17.4c1.2-1.2,4-2.1,6.3-2.1c2.3,0,3.2,0.9,2.1,2.1l-21.6,21.6
		c-0.8,0.8-2.4,1.5-4.1,1.9v1v3.3h9.5h0.2l0,0l5.2-5.2c0-0.3,0.1-0.7,0.5-1c0.4-0.4,0.9-0.7,1.6-1l5.2-5.2c0-0.3,0.1-0.7,0.5-1
		c0.4-0.4,0.9-0.7,1.6-1l5.2-5.2c0-0.3,0.1-0.7,0.5-1c0.4-0.4,0.9-0.7,1.6-1l5.2-5.2c0-0.3,0.1-0.7,0.5-1c0.4-0.4,0.9-0.7,1.6-1
		L184.9,95.3L184.9,95.3z"/>
	<path class="st8" d="M158.1,122.1c-0.7,0.3-1.2,0.7-1.6,1c-0.4,0.4-0.5,0.7-0.5,1L158.1,122.1L158.1,122.1z M165.3,114.9
		c-0.6,0.3-1.2,0.7-1.6,1c-0.4,0.4-0.5,0.7-0.5,1L165.3,114.9L165.3,114.9z M172.5,107.7c-0.6,0.3-1.2,0.7-1.6,1
		c-0.4,0.4-0.5,0.7-0.5,1L172.5,107.7L172.5,107.7z M179.7,100.5c-0.7,0.3-1.2,0.7-1.6,1c-0.4,0.4-0.5,0.7-0.5,1L179.7,100.5
		L179.7,100.5z M145.4,99.4c-1.1,0-2.4,0.2-3.6,0.6l-0.6,0.2v3.4c1.1,0,2.4-0.2,3.5-0.6c2.3-0.8,3.7-2.2,3-3
		C147.4,99.7,146.5,99.4,145.4,99.4L145.4,99.4z M164.9,99.4c-2.3,0-5.1,0.9-6.3,2.1l-17.4,17.4v6.1c1.7-0.3,3.3-1,4.1-1.9
		l21.6-21.6C168.2,100.4,167.2,99.4,164.9,99.4L164.9,99.4z"/>
	<polygon class="st9" points="150.9,129.4 150.7,129.4 150.7,158.7 158.7,158.7 158.7,135.6 	"/>
	<polygon class="st9" points="170.3,145 170.3,158.7 178.2,158.7 178.2,151.3 	"/>
	<polygon class="st11" points="187.1,158.5 187.1,158.5 187.1,158.7 187.2,158.6 	"/>
	<polygon class="st3" points="141.3,213.3 63.2,213.3 63.2,70.1 141.3,70.1 	"/>
	<polygon class="st4" points="111.9,213.3 43.9,213.3 43.9,70.1 111.9,70.1 	"/>
	<path class="st3" d="M56.2,87.3h43.3c2.3,0,4.2-1.9,4.2-4.2c0-2.3-1.9-4.2-4.2-4.2H56.2c-2.3,0-4.2,1.9-4.2,4.2
		C52.1,85.4,53.9,87.3,56.2,87.3z M66.5,102.6c0,2.3,1.9,4.2,4.2,4.2c2.3,0,4.2-1.9,4.2-4.2c0-2.3-1.9-4.2-4.2-4.2
		C68.3,98.5,66.5,100.3,66.5,102.6z M80.9,102.6c0,2.3,1.9,4.2,4.2,4.2c2.3,0,4.2-1.9,4.2-4.2c0-2.3-1.9-4.2-4.2-4.2
		C82.8,98.5,80.9,100.3,80.9,102.6z M53.3,99.7c-0.8,0.8-1.2,1.8-1.2,2.9c0,1.1,0.4,2.2,1.2,3c0.8,0.8,1.9,1.2,3,1.2
		c1.1,0,2.2-0.4,3-1.2c0.8-0.8,1.2-1.9,1.2-3c0-1.1-0.4-2.2-1.2-2.9C57.6,98.2,54.9,98.1,53.3,99.7z M96.6,99.7
		c-0.8,0.8-1.2,1.8-1.2,2.9c0,1.1,0.4,2.2,1.2,3c0.8,0.8,1.9,1.2,2.9,1.2c1.1,0,2.2-0.4,3-1.2c0.8-0.8,1.2-1.9,1.2-3
		c0-1.1-0.4-2.2-1.2-2.9C100.9,98.1,98.2,98.1,96.6,99.7z M99.5,118H56.2c-2.3,0-4.2,1.9-4.2,4.2c0,2.3,1.9,4.2,4.2,4.2h43.3
		c2.3,0,4.2-1.9,4.2-4.2C103.7,119.9,101.8,118,99.5,118z M102.5,144.6c0.8-0.8,1.2-1.8,1.2-3c0-1.1-0.4-2.2-1.2-3
		c-1.5-1.5-4.4-1.5-5.9,0c-0.8,0.8-1.2,1.9-1.2,3c0,1.1,0.4,2.2,1.2,3c0.8,0.8,1.8,1.2,2.9,1.2C100.6,145.9,101.7,145.4,102.5,144.6
		z M89.3,141.7c0-2.3-1.9-4.2-4.2-4.2c-2.3,0-4.2,1.9-4.2,4.2c0,2.3,1.9,4.2,4.2,4.2C87.4,145.9,89.3,144,89.3,141.7z M56.2,145.9
		c1.1,0,2.2-0.4,3-1.2c0.8-0.8,1.2-1.8,1.2-3c0-1.1-0.4-2.2-1.2-3c-1.5-1.5-4.3-1.5-5.9,0c-0.8,0.8-1.2,1.9-1.2,3
		c0,1.1,0.4,2.2,1.2,3C54.1,145.4,55.1,145.9,56.2,145.9z M74.9,141.7c0-2.3-1.9-4.2-4.2-4.2c-2.3,0-4.2,1.9-4.2,4.2
		c0,2.3,1.9,4.2,4.2,4.2C73,145.9,74.9,144,74.9,141.7z M99.5,157H56.2c-2.3,0-4.2,1.9-4.2,4.2s1.9,4.2,4.2,4.2h43.3
		c2.3,0,4.2-1.9,4.2-4.2C103.7,158.9,101.8,157,99.5,157z M89.3,180.7c0-2.3-1.9-4.2-4.2-4.2c-2.3,0-4.2,1.9-4.2,4.2
		c0,2.3,1.9,4.2,4.2,4.2C87.4,184.9,89.3,183,89.3,180.7z M74.9,180.7c0-2.3-1.9-4.2-4.2-4.2c-2.3,0-4.2,1.9-4.2,4.2
		c0,2.3,1.9,4.2,4.2,4.2C73,184.9,74.9,183,74.9,180.7z M102.5,183.7c0.8-0.8,1.2-1.9,1.2-3c0-1.1-0.4-2.2-1.2-3
		c-1.5-1.5-4.4-1.5-5.9,0c-0.8,0.8-1.2,1.9-1.2,3c0,1.1,0.4,2.2,1.2,3c0.8,0.8,1.9,1.2,2.9,1.2C100.6,184.9,101.7,184.5,102.5,183.7
		z M56.2,184.9c1.1,0,2.2-0.5,3-1.2c0.8-0.8,1.2-1.9,1.2-3c0-1.1-0.4-2.2-1.2-3c-1.5-1.5-4.4-1.5-5.9,0c-0.8,0.8-1.2,1.9-1.2,3
		c0,1.1,0.4,2.2,1.2,3C54.1,184.5,55.1,184.9,56.2,184.9z M99.5,196.1H56.2c-2.3,0-4.2,1.9-4.2,4.2c0,2.3,1.9,4.2,4.2,4.2h43.3
		c2.3,0,4.2-1.9,4.2-4.2C103.7,197.9,101.8,196.1,99.5,196.1z"/>
	<path class="st5" d="M141.3,196.3h-29.4v7.9h29.4V196.3L141.3,196.3z M141.3,176.8h-29.4v7.9h29.4V176.8L141.3,176.8z M141.3,157.2
		h-29.4v7.9h29.4V157.2L141.3,157.2z M141.3,137.6h-29.4v7.9h29.4V137.6L141.3,137.6z M141.3,118.1h-29.4v7.9h29.4v-1v-6.1V118.1
		L141.3,118.1z M141.3,98.5h-29.4v7.9h29.4v-2.8v-3.4V98.5L141.3,98.5z M141.3,78.9h-29.4v7.9h29.4V78.9L141.3,78.9z"/>
	<path class="st12" d="M163.5,55.8c-1.4-4.2-3.6-4.2-4.9,0l-28.3,88.2c-1.4,4.2,1.2,7.7,5.6,7.7h50.5c4.4,0,6.9-3.4,5.6-7.7
		L163.5,55.8z"/>
	<path class="st13" d="M163.5,54.2c-1.4-4.2-3.6-4.2-4.9,0l-28.3,88.2c-1.4,4.2,1.2,7.7,5.6,7.7h50.5c4.4,0,6.9-3.4,5.6-7.7
		L163.5,54.2z"/>
	<path class="st12" d="M191.9,142.5l-28.3-88.2c-0.7-2.1-1.6-3.2-2.5-3.2v99h25.2C190.7,150.1,193.2,146.7,191.9,142.5z"/>
	<path class="st13" d="M175.9,199.1c-1.3,0-2.4-1.1-2.4-2.4v-19c0-3.1-2.2-5.6-5-5.6c-5.4,0-9.8-4.7-9.8-10.5v-17.4
		c0-1.3,1.1-2.4,2.4-2.4c1.3,0,2.4,1.1,2.4,2.4v17.4c0,3.1,2.2,5.6,5,5.6c5.4,0,9.8,4.7,9.8,10.5v19
		C178.3,198,177.2,199.1,175.9,199.1z"/>
	<path class="st14" d="M166.6,188.6v49c0,5,4.1,9.1,9.1,9.1c5,0,9.1-4.1,9.1-9.1v-49H166.6z"/>
	<path class="st15" d="M175.7,188.6v58.1c5,0,9.1-4.1,9.1-9.1v-49H175.7z"/>
	<path class="st16" d="M166.6,193.4v2.8h18.2v-2.8H166.6z M166.6,202.8h18.2V200h-18.2V202.8z M166.6,209.4h18.2v-2.8h-18.2V209.4z
		 M166.6,215.9h18.2v-2.8h-18.2V215.9z M166.6,222.5h18.2v-2.8h-18.2V222.5z M166.6,229h18.2v-2.8h-18.2V229z M166.6,235.6h18.2
		v-2.8h-18.2V235.6z"/>
</g>
</svg>
