<?xml version="1.0" encoding="utf-8"?>
<!-- Generator: Adobe Illustrator 23.0.3, SVG Export Plug-In . SVG Version: 6.00 Build 0)  -->
<svg version="1.1" id="Layer_1" xmlns="http://www.w3.org/2000/svg" xmlns:xlink="http://www.w3.org/1999/xlink" x="0px" y="0px"
	 viewBox="0 0 288 288" style="enable-background:new 0 0 288 288;" xml:space="preserve">
<style type="text/css">
	.st0{clip-path:url(#SVGID_2_);fill:#EA8953;}
	.st1{clip-path:url(#SVGID_2_);fill:#B0673E;enable-background:new    ;}
	.st2{clip-path:url(#SVGID_2_);fill:#64798A;}
	.st3{clip-path:url(#SVGID_2_);fill:#3A556A;}
	.st4{clip-path:url(#SVGID_2_);fill:#E1E6E9;}
	.st5{clip-path:url(#SVGID_2_);fill:#E56353;}
	.st6{clip-path:url(#SVGID_2_);}
	.st7{fill:#3A556A;}
	.st8{clip-path:url(#SVGID_2_);fill:#EBF0F3;}
	.st9{clip-path:url(#SVGID_2_);fill:#2F4859;}
</style>
<g>
	<defs>
		<circle id="SVGID_1_" cx="144" cy="144" r="144"/>
	</defs>
	<clipPath id="SVGID_2_">
		<use xlink:href="#SVGID_1_"  style="overflow:visible;"/>
	</clipPath>
	<circle class="st0" cx="144" cy="144" r="144"/>
	<path class="st1" d="M33,122.1c0.9,2.7,1.8,5.5,3.5,7.8c0.7,0.9,1.4,1.7,2.2,2.4L97.5,191c2.1,5.5,5.1,13.6,8.1,21.8
		c-1.6,3.8-5.7,16,2.1,23.2h0l76.9,76.9c65.1-17.8,115.7-70.5,130.4-136.8l-73.3-73.3l-0.1-0.1c-0.4-0.4-0.8-0.7-1.3-1
		c-2.8-1.5-5.8-2.7-9-3.6l-66.3-66.3c-1.9-1.7-4.8,0.3-4,3.2c2.8,10.5-2.7,18-9.7,32.7c-2-0.5-3.8-0.7-5.5-0.9L111,32l-0.1-0.1v0
		c-1-0.9-2.6-1-3.6,0.5C98.9,45,97,62.3,103.2,77.3c-6.5,6-12.2,15.4-15.1,30c-3.7-0.2-6.9-2.6-10.2-4.6c-13.6-8.3-31.6-8.5-45.5-1
		c-2.6,1.4-3.9,4.5-3.1,7.4C30.5,113.5,31.6,117.8,33,122.1z"/>
	<path class="st2" d="M107.3,32.4c-8.7,13.2-10.5,31.5-3.1,47l17.6-11c-7.2-15.1-12.8-22.7-10-33.4C112.6,31.9,109,29.7,107.3,32.4z
		"/>
	<path class="st2" d="M165.5,32.4c8.7,13.2,10.5,31.5,3.1,47l-17.6-11c7.2-15.1,12.8-22.7,10-33.4C160.2,31.9,163.8,29.7,165.5,32.4
		z"/>
	<path class="st3" d="M177.9,184.3c0,0-5.5,14.2-10.7,28.5c-2.3,6.2-4.5,12.4-6.1,17.5c-2.1,6.4-8.1,10.6-14.8,10.6h-19.7
		c-6.7,0-12.7-4.3-14.8-10.6c-1.7-5.1-3.9-11.3-6.2-17.5c-5.2-14.3-10.7-28.5-10.7-28.5c-13.4-35.8-7.9-69.6-7.9-69.6
		c2.3-19.4,9-31.1,16.9-38c10.1-9,22-10.1,28.2-10c2.8,0,5.7,0,8.6,0c6.2-0.1,18.1,1.1,28.2,10c7.9,6.9,14.6,18.6,16.9,38
		C185.8,114.6,191.3,148.5,177.9,184.3z"/>
	<path class="st4" d="M167.2,212.8c2.5,6,11.4,32.9-30.8,28.2c-42.2,4.7-33.3-22.2-30.8-28.2c0.3-0.8,0.5-1.2,0.5-1.2
		c36.3-52.6,13.3-78.4,13.3-78.4c-23-37.4-17-53.6-17-53.6c0.4-1.1,0.8-2,1.4-2.9c10.1-9,22-10.1,28.2-10c2.8,0,5.7,0,8.6,0
		c6.2-0.1,18.1,1.1,28.2,10c0.6,0.9,1.1,1.9,1.4,2.9c0,0,6,16.3-17,53.6c0,0-23,25.8,13.3,78.4C166.6,211.6,166.9,212,167.2,212.8z"
		/>
	<path class="st5" d="M148.5,241.6h-24.3c-4.7,0-8.6-3.8-8.6-8.6v-14.5c0-4.7,3.8-8.6,8.6-8.6h24.3c4.7,0,8.6,3.8,8.6,8.6V233
		C157.1,237.8,153.3,241.6,148.5,241.6z"/>
	<g class="st6">
		<path class="st7" d="M150,218c1.3,1.5,1.3,3.2,1,4.7c-0.3,1.4-1.2,2.6-2.2,3.4c-1,0.8-2.3,1.3-3.7,1.3c-1.4,0-2.8-0.4-4.3-1.7
			c0.4-1.9,0.9-3.1,1.4-4c0.5-0.9,1-1.5,1.6-2c0.6-0.5,1.3-0.7,2.2-0.9C147,218.6,148.1,218.5,150,218z"/>
		<path class="st7" d="M122.8,218c-1.3,1.5-1.3,3.2-1,4.7c0.3,1.4,1.2,2.6,2.2,3.4c1,0.8,2.3,1.3,3.7,1.3c1.4,0,2.8-0.4,4.3-1.7
			c-0.4-1.9-0.9-3.1-1.4-4c-0.5-0.9-1-1.5-1.6-2c-0.6-0.5-1.3-0.7-2.2-0.9C125.8,218.6,124.7,218.5,122.8,218z"/>
		<path class="st7" d="M194.8,102.7c-3.6,2.2-7.3,5-11.5,4.6v29.8c1.4-0.2,3,0,4.4,0.5c1.9,0.6,3.6,1.9,5.4,2.9
			c5.9,3.3,13.1,3.9,19.8,2.6c6.7-1.3,12.8-4.6,18.3-8.5c1.8-1.3,3.6-2.8,5-4.6c1.7-2.3,2.7-5.1,3.6-7.8c1.4-4.3,2.5-8.6,3.6-12.9
			c0.8-2.9-0.5-6-3.1-7.4C226.4,94.2,208.4,94.4,194.8,102.7z"/>
	</g>
	<path class="st2" d="M206.3,134c-3.2,0-6.2-0.7-8.5-2c-0.4-0.2-0.8-0.5-1.3-0.7c0,0,0,0,0,0c-2.2-1.3-3.5-3.6-3.5-6.1v-5.9
		c0-2.5,1.4-4.9,3.6-6.2c0.7-0.4,1.3-0.8,2-1.2l1.3-0.8c5.4-3.3,11.7-5,18.4-5c5.3,0,10.4,1.1,15.1,3.2l-0.1,0.2
		c-0.9,3.4-1.7,6.6-2.8,9.7c-0.6,1.8-1.3,3.9-2.1,5c-0.6,0.8-1.9,1.8-2.9,2.5c-5,3.6-9.9,5.9-14.6,6.9
		C209.4,133.8,207.9,134,206.3,134z"/>
	<path class="st3" d="M78,102.7c3.6,2.2,7.3,5,11.5,4.6v29.8c-1.4-0.2-3,0-4.4,0.5c-1.9,0.6-3.6,1.9-5.4,2.9
		c-5.9,3.3-13.1,3.9-19.8,2.6c-6.7-1.3-12.8-4.6-18.3-8.5c-1.8-1.3-3.6-2.8-5-4.6c-1.7-2.3-2.7-5.1-3.6-7.8
		c-1.4-4.3-2.5-8.6-3.6-12.9c-0.8-2.9,0.5-6,3.1-7.4C46.4,94.2,64.4,94.4,78,102.7z"/>
	<path class="st2" d="M66.4,134c3.2,0,6.2-0.7,8.5-2c0.4-0.2,0.8-0.5,1.3-0.7c0,0,0,0,0,0c2.2-1.3,3.5-3.6,3.5-6.1v-5.9
		c0-2.5-1.4-4.9-3.6-6.2c-0.7-0.4-1.3-0.8-2-1.2l-1.3-0.8c-5.4-3.3-11.7-5-18.4-5c-5.3,0-10.4,1.1-15.1,3.2l0.1,0.2
		c0.9,3.4,1.7,6.6,2.8,9.7c0.6,1.8,1.3,3.9,2.1,5c0.6,0.8,1.9,1.8,2.9,2.5c5,3.6,9.9,5.9,14.6,6.9C63.3,133.8,64.9,134,66.4,134z"/>
	<path class="st8" d="M177.8,139.1c-0.4,2.5-1.6,4.9-3.3,6.9c-0.3,0.4-2.5,1.5-3.1,1.5c-3.1,0.3-6.2-0.6-9-1.9
		c-1.3-0.6-2.6-1.4-3-2.8c-0.4-1.2,0.2-2.6,1-3.5c0.8-0.9,1.9-1.5,3-2.1c0.1,0,0.1-0.1,0.2-0.1c2.2-1.2,4.4-2.3,6.5-3.5
		c0.5-0.3,1-0.6,1.7-0.9c1.6-0.9,3.6-1.6,4.7-0.6C178,133.5,178,137.3,177.8,139.1z"/>
	<path class="st8" d="M113.4,142.8c-0.4,1.3-1.7,2.2-3,2.8c-2.8,1.3-5.9,2.2-9,1.9c-0.6-0.1-2.7-1.1-3.1-1.5
		c-1.7-1.9-2.9-4.3-3.3-6.9c-0.3-1.8-0.3-5.7,1.3-7c1.1-1,3.1-0.2,4.7,0.6c0.6,0.3,1.2,0.7,1.7,0.9c2.2,1.1,4.4,2.3,6.6,3.5
		c0.1,0,0.1,0.1,0.1,0.1c1.1,0.6,2.2,1.1,3,2.1C113.3,140.2,113.8,141.6,113.4,142.8z"/>
	<path class="st9" d="M174.8,137.8c0,3.1-2.5,5.7-5.7,5.7c-3.1,0-5.7-2.6-5.7-5.7c0-0.2,0-0.4,0-0.6c0.1,0,0.1-0.1,0.2-0.1
		c2.2-1.2,4.4-2.3,6.5-3.5c0.5-0.3,1-0.6,1.7-0.9C173.6,133.7,174.8,135.6,174.8,137.8z"/>
	<circle class="st8" cx="169.9" cy="136.8" r="1.4"/>
	<path class="st9" d="M109.4,137.8c0,3.1-2.6,5.7-5.7,5.7c-3.2,0-5.7-2.6-5.7-5.7c0-2.2,1.2-4.1,3-5.1c0.6,0.3,1.2,0.7,1.7,0.9
		c2.2,1.1,4.4,2.3,6.6,3.5c0.1,0,0.1,0.1,0.1,0.1C109.4,137.4,109.4,137.6,109.4,137.8z"/>
	<circle class="st8" cx="102.9" cy="136.8" r="1.4"/>
</g>
</svg>
