<?xml version="1.0" encoding="utf-8"?>
<!-- Generator: Adobe Illustrator 23.0.3, SVG Export Plug-In . SVG Version: 6.00 Build 0)  -->
<svg version="1.1" id="Layer_1" xmlns="http://www.w3.org/2000/svg" xmlns:xlink="http://www.w3.org/1999/xlink" x="0px" y="0px"
	 viewBox="0 0 288 288" style="enable-background:new 0 0 288 288;" xml:space="preserve">
<style type="text/css">
	.st0{fill:#71E2EF;}
	.st1{fill:#38C6D9;}
	.st2{fill:#FCD088;}
	.st3{fill:#DDAB62;}
	.st4{fill:#FFEDB5;}
	.st5{fill:#E8CF89;}
	.st6{fill:#895707;}
	.st7{fill:#6D4306;}
	.st8{fill:#3A3A3A;}
	.st9{fill:#333333;}
	.st10{fill:#FEE187;}
	.st11{fill:#FFC61B;}
	.st12{fill:#FF5419;}
	.st13{fill:#FF0F27;}
</style>
<circle class="st0" cx="144" cy="144" r="143.2"/>
<path class="st1" d="M237.4,117.3l-4.5,0.1l0.7-3.2l-57.8-57.8l-2.3,62.9L54,124.1l150.8,149.6c42.4-20,73.5-60.1,80.7-108.1
	L237.4,117.3z"/>
<rect x="120.1" y="164.3" class="st2" width="47.7" height="65.8"/>
<rect x="143.7" y="164.3" class="st3" width="24.2" height="65.8"/>
<path class="st4" d="M193.6,127.5c0.2-2.3,0.4-4.6,0.4-6.8c0-29.2-22.4-52.9-50-52.9s-50,23.7-50,52.9c0,2.2,0.1,4.5,0.4,6.8
	c-4.8,1.3-7.2,8.7-5.1,16.7c2,8,7.6,13.5,12.5,12.3c0.4-0.1,0.9-0.3,1.3-0.5c9,18.1,24,32.8,41,32.8s32-14.7,41-32.8
	c0.4,0.2,0.8,0.4,1.3,0.5c4.9,1.2,10.5-4.3,12.5-12.3C200.7,136.2,198.4,128.8,193.6,127.5z"/>
<path class="st5" d="M193.6,127.5c0.2-2.3,0.4-4.6,0.4-6.8c0-29.2-22.4-52.9-50-52.9c-0.1,0-0.2,0-0.3,0v121c0.1,0,0.2,0,0.3,0
	c17,0,32-14.7,41-32.8c0.4,0.2,0.8,0.4,1.3,0.5c4.9,1.2,10.5-4.3,12.5-12.3C200.7,136.2,198.4,128.8,193.6,127.5z"/>
<path class="st6" d="M120.7,158.1l-16.2-24.5h-3.4c0,0,2.4,13.7,2.4,26s12.8,36,36,36h8.8c23.3,0,36-23.8,36-36s2.4-26,2.4-26h-3.4
	l-16.2,24.5l-23.5,5.2L120.7,158.1z"/>
<path class="st7" d="M183.5,133.6l-16.2,24.5l-23.5,5.2l-0.2,0v32.5h4.7c23.3,0,36-23.8,36-36s2.4-26,2.4-26H183.5L183.5,133.6z"/>
<path class="st8" d="M156.1,160.3c-8.1-5.3-10.6-2.9-12.1-0.4c-1.5-2.6-4-4.9-12.1,0.4c-8.3,5.4-19.2-0.8-19.2-0.8
	s5.8,11.4,20.1,9.9c6.1-0.6,9.9-3.1,11.2-5.7c1.3,2.5,5.1,5.1,11.2,5.7c14.3,1.4,20.1-9.9,20.1-9.9S164.4,165.6,156.1,160.3z"/>
<path class="st9" d="M156.1,160.3c-8.1-5.3-10.6-2.9-12.1-0.4c-0.1-0.2-0.2-0.3-0.3-0.5v4.9c0.1-0.2,0.2-0.4,0.3-0.5
	c1.3,2.5,5.1,5.1,11.2,5.7c14.3,1.4,20.1-9.9,20.1-9.9S164.4,165.6,156.1,160.3z"/>
<path class="st8" d="M113.2,93.7c0,0-8.7,0.7-5.4,11.5c3.3,10.7-5.4,40.4-5.4,40.4s-0.5-14.4-8-18.1c-7.5-3.7-2-63.7,49.6-63.7
	s57,60,49.6,63.7c-7.5,3.7-8,18.1-8,18.1s-8.6-29.7-5.4-40.4s-5.4-11.5-5.4-11.5S146.2,104.6,113.2,93.7z"/>
<path class="st4" d="M92.4,105c0,0,10.1-73.6,51.6-53.4c41.5-20.2,51.6,53.4,51.6,53.4"/>
<g>
	<path class="st10" d="M144,51.6c-0.1-0.1-0.2-0.1-0.3-0.1V105h51.9C195.6,105,185.5,31.4,144,51.6z"/>
	<path class="st10" d="M144,92.2c-51.6,0-93.4,11.2-93.4,25.1c0,8.3,14.9,15.6,38,20.2c0.3-5.1,2.4-9.1,5.8-10
		c-0.2-2.3-0.4-4.6-0.4-6.8c0-1.3,0.1-2.6,0.1-3.8c10.9-6.9,29.1-11.5,49.8-11.5s38.9,4.6,49.8,11.5c0.1,1.3,0.1,2.5,0.1,3.8
		c0,2.2-0.1,4.5-0.4,6.8c3.4,0.9,5.6,4.9,5.8,10c23-4.6,38-11.9,38-20.2C237.4,103.5,195.6,92.2,144,92.2z"/>
</g>
<path class="st11" d="M144,92.2c-0.1,0-0.2,0-0.3,0v13.2c0.1,0,0.2,0,0.3,0c20.7,0,38.9,4.6,49.8,11.5c0.1,1.3,0.1,2.5,0.1,3.8
	c0,2.2-0.1,4.5-0.4,6.8c3.4,0.9,5.6,4.9,5.8,10c23-4.6,38-11.9,38-20.2C237.4,103.5,195.6,92.2,144,92.2z"/>
<path class="st12" d="M200.9,205.4l-25.3-5.1l-4.5-6.5c-0.8-1.2-2.4-1.7-3.8-1.1L144,219.2l-23.2-26.6c-1.4-0.6-2.9-0.1-3.8,1.1
	l-4.6,6.6l-25.3,5.1c-12.9,2.6-22.2,13.9-22.2,27v31c22.7,15,49.9,23.8,79.1,23.8s56.4-8.8,79.1-23.8v-31
	C223.1,219.2,213.8,207.9,200.9,205.4z"/>
<path class="st13" d="M200.9,205.4l-25.3-5.1l-4.5-6.5c-0.8-1.2-2.4-1.7-3.8-1.1L144,219.2l-0.3-0.4v68.3c0.1,0,0.2,0,0.3,0
	c29.2,0,56.4-8.8,79.1-23.8v-31C223.1,219.2,213.8,207.9,200.9,205.4z"/>
<path class="st10" d="M105.9,201.6l-11.6,2.3v74.4c15.5,5.7,32.2,8.9,49.7,8.9s34.2-3.2,49.7-8.9v-74.4l-11.6-2.3v36.1h-76.2V201.6z
	"/>
<path class="st11" d="M182.1,201.6v36.1h-38.4v49.5c0.1,0,0.2,0,0.3,0c17.5,0,34.2-3.2,49.7-8.9v-74.4L182.1,201.6z"/>
<path class="st10" d="M144,219.3l-24.6-28.6c-1-1.1-2.9-1.1-4,0l-9.5,10.8l20.5,29.5c1.7,2.5,5.7,2.6,7.5,0.1L144,219.3z"/>
<path class="st11" d="M144,219.3l24.6-28.6c1-1.1,2.9-1.1,4,0l9.5,10.8L161.6,231c-1.7,2.5-5.7,2.6-7.5,0.1L144,219.3z"/>
</svg>
