<?xml version="1.0" encoding="utf-8"?>
<!-- Generator: Adobe Illustrator 23.0.3, SVG Export Plug-In . SVG Version: 6.00 Build 0)  -->
<svg version="1.1" id="Layer_1" xmlns="http://www.w3.org/2000/svg" xmlns:xlink="http://www.w3.org/1999/xlink" x="0px" y="0px"
	 viewBox="0 0 288 288" style="enable-background:new 0 0 288 288;" xml:space="preserve">
<style type="text/css">
	.st0{fill:#71E2EF;}
	.st1{fill:#38C6D9;}
	.st2{fill:#A3D5E0;}
	.st3{fill:#E2A379;}
	.st4{fill:#779FA5;}
	.st5{fill:#6F6E3A;}
	.st6{fill:#424131;}
	.st7{fill:#CC936D;}
	.st8{fill:#30302E;}
	.st9{fill:#BF8A3D;}
	.st10{fill:#F4B382;}
	.st11{fill:#9B7334;}
	.st12{fill:#D19743;}
	.st13{fill:#E2A84B;}
	.st14{fill:#CC785E;}
	.st15{fill:#C16952;}
</style>
<path class="st0" d="M144.1,0c-79,0-143,64.1-143,143s64.1,143,143,143s143-64.1,143-143S223.1,0,144.1,0z"/>
<path class="st1" d="M287.1,134.6l-56.4-40.4l-2.9,5.6l1.3-5.6L157.4,49l-93.8,62l50.5,80.6l88.6,83.8
	c21.2-12.9,42.3-26.1,60.6-53.4c0,0,10.4-13.8,16.5-33.7C284.8,171.9,288,158.1,287.1,134.6z"/>
<g>
	<path class="st2" d="M219.8,231.2c-3.7-14-36.1-25.4-75.8-25.4s-71.7,11.4-75.5,25.4c-1.7,6.3-3.6,18.1-5.2,29.7
		c22,18,50.2,28.8,80.9,28.8s58.8-10.8,80.9-28.8C223.3,249.3,221.5,237.4,219.8,231.2z"/>
	<path class="st2" d="M219.8,231.2c-2.5-9.2-17.2-17.3-38.3-21.8l9.2,49.8l33.2-5.5C222.6,244.6,221.1,236.1,219.8,231.2z"/>
	<path class="st2" d="M68.5,231.2c-1.3,5-2.8,13.5-4.2,22.6l32.7,5.4l9.2-49.6C85.4,213.8,70.9,221.9,68.5,231.2z"/>
</g>
<g>
	<path class="st3" d="M224.7,258.8l-32.9,5.5l2.8,14.9c11-4.7,21.3-11,30.5-18.5C224.9,260.1,224.8,259.5,224.7,258.8z"/>
	<path class="st3" d="M63.6,258.8c-0.1,0.7-0.2,1.3-0.3,2c9.1,7.5,19.1,13.6,30,18.3l2.8-14.8L63.6,258.8z"/>
</g>
<g>
	<path class="st4" d="M64.4,253.6c-0.3,1.7-0.5,3.5-0.8,5.2l32.5,5.4l1-5.2L64.4,253.6z"/>
	<path class="st4" d="M223.9,253.6l-33.1,5.5l1,5.2l32.9-5.5C224.5,257.1,224.2,255.4,223.9,253.6z"/>
</g>
<path class="st5" d="M186.6,209.2v58.2h-85v-58.3c-4.7,0.8-9.1,1.8-13.2,2.8v64.8c16.9,8.2,35.7,12.7,55.7,12.7s38.9-4.6,55.7-12.7
	v-64.7C195.7,211,191.3,210,186.6,209.2z"/>
<g>
	<circle class="st6" cx="95" cy="267" r="3.7"/>
	<circle class="st6" cx="193.2" cy="267" r="3.7"/>
</g>
<g>
	<path class="st7" d="M164.2,179.2H124c6.2,18.8,0.5,27.4,0.5,27.4s1.2,58.1,19.4,58.1s19.7-58.1,19.7-58.1S158,198.1,164.2,179.2z"
		/>
	<path class="st7" d="M144.1,249.7l-2.8,14.7c0.8,0.3,1.7,0.4,2.5,0.4c1.1,0,2-0.2,2.9-0.5L144.1,249.7z"/>
</g>
<g>
	<path class="st8" d="M169.8,124.1l-55.5-2.9c-46.7,47-18.1,77.3-9,92.1c18.5,29.8-1.9,40.1-1.9,40.1l1-0.5c0,0,36-6.9,22.6-39.3
		C120.3,197.4,116.1,163,169.8,124.1z"/>
	<path class="st8" d="M182.7,213.2c9.1-14.8,37.7-45.1-9-92.1l-55.5,2.9c53.6,38.9,49.5,73.4,42.8,89.4
		c-13.5,32.3,22.6,39.3,22.6,39.3l1,0.5C184.5,253.3,164.2,243,182.7,213.2z"/>
</g>
<path class="st9" d="M144.1,97.2c-47.7,0-86.8-4.6-86.8-4.6c0,2.3,5.7,17.2,5.9,17.5c2,5.1,19.9,32.6,81,32.6s78.6-27.4,80.9-32.4
	c0.1-0.3,5.9-15.3,5.9-17.6C230.9,92.7,191.9,97.2,144.1,97.2z"/>
<g>
	<path class="st10" d="M144.1,65.6c-22.6,0-41.1,10.9-41.1,58.5c0,16.2,2.9,28.8,7.2,38.5c9.5,21.4,25.9,29,33.9,29
		s24.4-7.5,33.9-29c4.4-9.8,7.2-22.4,7.2-38.5C185.2,76.5,166.8,65.6,144.1,65.6z"/>
	<path class="st10" d="M103.8,125.6c-3.9,0.7-6.9,2.4-4.7,15.3c2.2,13,5,13.6,8.9,12.9L103.8,125.6z"/>
	<path class="st10" d="M184.5,125.6l-4.2,28.2c3.9,0.7,6.7,0.1,8.9-12.9C191.4,128,188.4,126.3,184.5,125.6z"/>
</g>
<path class="st8" d="M144.1,65.6c-29.6,0-42.6,13-42.6,60.6l4.9-4.1c23.6,0,43.8-13.9,58.4-27c6.2,17.1,22,31,22,31
	C186.7,78.5,173.7,65.6,144.1,65.6z"/>
<path class="st11" d="M154.9,49.3c-4-1.1-7.5-1.6-11.3-1.6c-3.5,0-8,0.6-11.5,1.7c-4.6,0,4.1,6,11.8,6
	C151.8,55.2,158.8,49.3,154.9,49.3z"/>
<path class="st12" d="M154.9,48.1c-3.9,0-7.5,2.7-11.3,2.7c-3.5,0-7.1-2.6-11.5-2.6c-9.2,0-24.6,33.4-24.6,33.4h73.1
	C180.7,81.5,162.4,48.1,154.9,48.1z"/>
<path class="st13" d="M144.1,77.4c-47.7,0-86.8,15.9-86.8,15.9c0,2.3,5.9,17.7,5.9,17.5c0-0.5,43.1-3.6,81-3.6s80.9,3.8,80.9,3.8
	c0.1-0.3,5.9-15.3,5.9-17.6C230.9,93.3,191.9,77.4,144.1,77.4z"/>
<path class="st14" d="M149.5,166.7c-1.5-0.2-5.3,1.3-5.3,1.3s-3.9-1.5-5.5-1.3c-2.5,0.4-8.3,2.4-8.3,3.1c0,0,7.3,5,13.8,5
	c6.5,0,13.8-5,13.8-5S152,167,149.5,166.7z"/>
<path class="st15" d="M147.3,170.1c-1.1-0.1-2.3,0.9-3.1,0.9c-1,0-2.5-0.9-3.6-0.8c-6.7,0.4-10.1-0.4-10.1-0.4s7.3,6.9,13.8,6.9
	c6.5,0,13.8-6.9,13.8-6.9S154.3,170.5,147.3,170.1z"/>
<g>
	<path class="st8" d="M106.4,128.2c-0.2-1.4-0.3-2.7-0.2-3.6c0.1-1.5,0.3-2.4,0.3-2.4l-4.9,1.8c0,0.7,0,1.5,0,2.2
		c0,0,0.4-0.2,1.3-0.4c0.7,1.2,1.5,2.9,2.3,5.4C105.1,131.2,107,132.5,106.4,128.2z"/>
	<path class="st8" d="M186.7,124l-4.8-3.2c0,0,0.2,2.3,0.3,3.8c0.1,1.1,0,2.3-0.2,3.6c-0.7,4.4,1.2,2.9,1.2,2.9
		c0.8-2.6,1.7-4.3,2.3-5.4c0.8,0.3,1.3,0.4,1.3,0.4C186.7,125.4,186.7,124.7,186.7,124z"/>
</g>
</svg>
