<?xml version="1.0" encoding="utf-8"?>
<!-- Generator: Adobe Illustrator 23.0.3, SVG Export Plug-In . SVG Version: 6.00 Build 0)  -->
<svg version="1.1" id="Layer_1" xmlns="http://www.w3.org/2000/svg" xmlns:xlink="http://www.w3.org/1999/xlink" x="0px" y="0px"
	 viewBox="0 0 288 288" style="enable-background:new 0 0 288 288;" xml:space="preserve">
<style type="text/css">
	.st0{fill:#71E2EF;}
	.st1{fill:#38C6D9;}
	.st2{fill:#A3D5E0;}
	.st3{fill:#E2A379;}
	.st4{fill:#779FA5;}
	.st5{fill:#6F6E3A;}
	.st6{fill:#424131;}
	.st7{fill:#CC936D;}
	.st8{fill:#30302E;}
	.st9{fill:#BF8A3D;}
	.st10{fill:#F4B382;}
	.st11{fill:#9B7334;}
	.st12{fill:#D19743;}
	.st13{fill:#E2A84B;}
	.st14{fill:#CC785E;}
	.st15{fill:#C16952;}
</style>
<path class="st0" d="M144.1,0C64.6,0,0.1,64.5,0.1,144s64.5,144,144,144s144-64.5,144-144S223.6,0,144.1,0z"/>
<path class="st1" d="M239.5,71l-1.5,1.1l-1.5-4.1L159.6,21l-38.1,120.3l-6.6,50.7l117.2,65.9c7.3-5.6,24.8-21.9,34.1-37.5
	c13.5-22.8,20.4-43.4,22-66.3c1.3-20.2-1.4-30.1-4.6-46.6L239.5,71z"/>
<g>
	<path class="st2" d="M229.3,222.2c-4.2-15.8-40.6-28.6-85.4-28.6s-80.7,12.8-85,28.6c-1.9,7.1-4.1,20.4-5.9,33.4
		c24.8,20.3,56.5,32.4,91.1,32.4s66.2-12.2,91.1-32.4C233.3,242.6,231.2,229.2,229.3,222.2z"/>
	<path class="st2" d="M229.3,222.2c-2.8-10.4-19.4-19.5-43.1-24.5l10.4,56.1l37.4-6.2C232.5,237.3,230.8,227.8,229.3,222.2z"/>
	<path class="st2" d="M59,222.2c-1.5,5.6-3.2,15.2-4.7,25.4l36.8,6.1l10.4-55.9C78,202.7,61.7,211.8,59,222.2z"/>
</g>
<g>
	<path class="st3" d="M234.8,253.3l-37.1,6.2l3.1,16.8c12.4-5.3,24-12.4,34.3-20.8C235.1,254.8,235,254.1,234.8,253.3z"/>
	<path class="st3" d="M53.4,253.3c-0.1,0.8-0.2,1.5-0.3,2.2c10.2,8.4,21.5,15.3,33.8,20.6l3.1-16.7L53.4,253.3z"/>
</g>
<g>
	<path class="st4" d="M54.3,247.5c-0.3,1.9-0.6,3.9-0.9,5.9l36.6,6.1l1.1-5.9L54.3,247.5z"/>
	<path class="st4" d="M234,247.5l-37.3,6.2l1.1,5.9l37.1-6.2C234.6,251.4,234.3,249.5,234,247.5z"/>
</g>
<path class="st5" d="M192,197.5V263H96.3v-65.6c-5.3,0.9-10.2,2-14.9,3.2v73c19,9.2,40.2,14.3,62.7,14.3c22.5,0,43.8-5.2,62.7-14.3
	v-72.8C202.2,199.5,197.2,198.4,192,197.5z"/>
<g>
	<circle class="st6" cx="88.8" cy="262.6" r="4.2"/>
	<circle class="st6" cx="199.4" cy="262.6" r="4.2"/>
</g>
<g>
	<path class="st7" d="M166.7,163.7h-45.2c7,21.2,0.6,30.9,0.6,30.9s1.3,65.4,21.8,65.4s22.2-65.4,22.2-65.4S159.7,185,166.7,163.7z"
		/>
	<path class="st7" d="M144.1,243.1l-3.1,16.5c0.9,0.3,1.9,0.5,2.8,0.5c1.2,0,2.2-0.2,3.3-0.6L144.1,243.1z"/>
</g>
<g>
	<path class="st8" d="M173,101.6l-62.5-3.3c-52.6,52.9-20.4,87-10.1,103.7c20.8,33.5-2.1,45.1-2.1,45.1l1.1-0.6
		c0,0,40.5-7.8,25.4-44.2C117.3,184.2,112.6,145.4,173,101.6z"/>
	<path class="st8" d="M187.5,202c10.3-16.7,42.5-50.8-10.1-103.7l-62.5,3.3c60.4,43.8,55.7,82.6,48.2,100.7
		c-15.2,36.4,25.4,44.2,25.4,44.2l1.1,0.6C189.6,247.1,166.7,235.5,187.5,202z"/>
</g>
<path class="st9" d="M144.1,71.4c-53.7,0-97.7-5.2-97.7-5.2c0,2.6,6.4,19.4,6.6,19.7c2.2,5.7,22.4,36.7,91.2,36.7
	s88.5-30.9,91.1-36.5c0.1-0.3,6.6-17.2,6.6-19.8C241.8,66.3,197.9,71.4,144.1,71.4z"/>
<g>
	<path class="st10" d="M144.1,35.8c-25.5,0-46.3,12.3-46.3,65.9c0,18.2,3.3,32.4,8.1,43.4c10.7,24.1,29.2,32.6,38.2,32.6
		c9,0,27.5-8.4,38.2-32.6c4.9-11,8.1-25.2,8.1-43.4C190.4,48.1,169.7,35.8,144.1,35.8z"/>
	<path class="st10" d="M98.7,103.3c-4.4,0.8-7.8,2.7-5.3,17.2c2.5,14.6,5.6,15.3,10,14.5L98.7,103.3z"/>
	<path class="st10" d="M189.6,103.3l-4.7,31.8c4.4,0.8,7.5,0.1,10-14.5C197.4,106,194,104.1,189.6,103.3z"/>
</g>
<path class="st8" d="M144.1,35.8c-33.3,0-48,14.6-48,68.2l5.5-4.6c26.6,0,49.3-15.6,65.7-30.4c7,19.2,24.8,34.9,24.8,34.9
	C192.1,50.3,177.4,35.8,144.1,35.8z"/>
<path class="st11" d="M156.3,17.4c-4.5-1.2-8.4-1.8-12.7-1.8c-3.9,0-9,0.7-12.9,1.9c-5.2,0,4.6,6.7,13.3,6.7
	C152.8,24.1,160.6,17.4,156.3,17.4z"/>
<path class="st12" d="M156.3,16.1c-4.4,0-8.4,3-12.7,3c-3.9,0-8-2.9-12.9-2.9c-10.4,0-27.7,37.6-27.7,37.6h82.3
	C185.3,53.7,164.7,16.1,156.3,16.1z"/>
<path class="st13" d="M144.1,49.1C90.4,49.1,46.4,67,46.4,67c0,2.6,6.6,19.9,6.6,19.7c0-0.6,48.5-4.1,91.2-4.1s91.1,4.3,91.1,4.3
	c0.1-0.3,6.6-17.2,6.6-19.8C241.8,67,197.9,49.1,144.1,49.1z"/>
<path class="st14" d="M150.2,149.6c-1.7-0.2-6,1.5-6,1.5s-4.4-1.7-6.2-1.5c-2.8,0.4-9.3,2.7-9.3,3.5c0,0,8.2,5.6,15.5,5.6
	c7.3,0,15.5-5.6,15.5-5.6S153,150,150.2,149.6z"/>
<path class="st15" d="M147.7,153.5c-1.2-0.1-2.6,1-3.5,1c-1.1,0-2.8-1-4.1-0.9c-7.6,0.5-11.4-0.4-11.4-0.4s8.2,7.8,15.5,7.8
	c7.3,0,15.5-7.8,15.5-7.8S155.6,153.9,147.7,153.5z"/>
<g>
	<path class="st8" d="M101.6,106.3c-0.2-1.6-0.3-3-0.2-4.1c0.1-1.7,0.3-2.7,0.3-2.7l-5.5,2c0,0.8,0,1.7,0,2.5c0,0,0.5-0.2,1.5-0.5
		c0.8,1.3,1.7,3.3,2.6,6.1C100.2,109.6,102.3,111.1,101.6,106.3z"/>
	<path class="st8" d="M192.1,101.5l-5.4-3.6c0,0,0.2,2.6,0.3,4.3c0.1,1.2,0,2.6-0.2,4.1c-0.8,4.9,1.3,3.3,1.3,3.3
		c0.9-2.9,1.9-4.8,2.6-6.1c0.9,0.3,1.5,0.5,1.5,0.5C192.1,103.1,192.1,102.3,192.1,101.5z"/>
</g>
</svg>
