<?xml version="1.0" encoding="utf-8"?>
<!-- Generator: Adobe Illustrator 23.0.3, SVG Export Plug-In . SVG Version: 6.00 Build 0)  -->
<svg version="1.1" id="Layer_1" xmlns="http://www.w3.org/2000/svg" xmlns:xlink="http://www.w3.org/1999/xlink" x="0px" y="0px"
	 viewBox="0 0 288 288" style="enable-background:new 0 0 288 288;" xml:space="preserve">
<style type="text/css">
	.st0{fill:#282012;}
	.st1{fill:#604226;}
	.st2{fill:#FF931F;}
	.st3{fill:#FFBB16;}
	.st4{fill:#96D6D4;}
	.st5{fill:#7F5429;}
</style>
<path class="st0" d="M288,144c0,3.6-0.1,7.1-0.4,10.6c-1.1,15.1-4.5,29.5-9.9,42.9c-7.4,18.6-18.7,35.3-32.7,49.1
	c-1.7,1.7-3.4,3.3-5.2,4.9c-2.9,2.6-5.9,5.1-9.1,7.4c-1.7,1.3-3.5,2.6-5.3,3.8c-2.8,1.9-5.7,3.7-8.6,5.5c-1.7,1-3.4,2-5.1,2.9
	c-2.9,1.6-5.9,3-8.9,4.4c-1.1,0.5-2.1,0.9-3.2,1.4c-0.8,0.3-1.7,0.7-2.5,1c-0.9,0.3-1.7,0.7-2.6,1c-0.4,0.1-0.7,0.3-1.1,0.4
	c-1.7,0.6-3.4,1.2-5.1,1.8c-2.5,0.8-5,1.6-7.6,2.2c0,0,0,0,0,0c-1.6,0.4-3.2,0.8-4.9,1.2c-0.1,0-0.2,0-0.3,0.1
	c-5.5,1.3-11.2,2.2-17,2.8c-0.8,0.1-1.6,0.2-2.4,0.2c-0.8,0.1-1.7,0.1-2.5,0.2c-0.7,0-1.3,0.1-2,0.1c-2.6,0.1-5.2,0.2-7.8,0.2
	c-2.6,0-5.2-0.1-7.8-0.2c-0.7,0-1.3-0.1-2-0.1c-0.8-0.1-1.7-0.1-2.5-0.2c-0.8-0.1-1.6-0.1-2.4-0.2c-5.8-0.6-11.4-1.5-17-2.8
	c-0.1,0-0.2,0-0.2-0.1c-1.6-0.4-3.3-0.8-4.9-1.2c0,0,0,0,0,0c-2.6-0.7-5.1-1.4-7.6-2.2c-1.7-0.6-3.4-1.1-5.1-1.8
	c-0.4-0.1-0.7-0.3-1.1-0.4c-0.9-0.3-1.7-0.7-2.6-1c-0.8-0.3-1.7-0.7-2.5-1c-1.1-0.4-2.1-0.9-3.2-1.4c-3-1.4-6-2.8-8.9-4.4
	c-1.7-0.9-3.4-1.9-5.1-2.9c-2.9-1.7-5.8-3.5-8.6-5.5c-1.8-1.2-3.6-2.5-5.3-3.8c-3.1-2.4-6.1-4.8-9.1-7.4c-1.8-1.6-3.5-3.2-5.2-4.9
	c-14-13.8-25.3-30.5-32.7-49.1c-5.4-13.4-8.8-27.8-9.9-42.9c-0.3-3.5-0.4-7-0.4-10.6c0-4.7,0.2-9.3,0.7-13.9
	c0.7-7.3,1.9-14.4,3.7-21.3c1.5-6.1,3.4-12,5.7-17.8c1.2-3.1,2.6-6.2,4-9.2c1.7-3.5,3.5-6.9,5.4-10.3C44.5,28.8,90.9,0,144,0
	c53.1,0,99.5,28.8,124.5,71.6c1.9,3.3,3.8,6.8,5.4,10.3c1.4,3,2.8,6.1,4,9.2c2.3,5.8,4.2,11.7,5.7,17.8c1.7,6.9,3,14,3.7,21.3
	C287.8,134.7,288,139.3,288,144z"/>
<path class="st1" d="M277.9,91H10.1c1.2-3.1,2.6-6.2,4-9.2h259.9C275.4,84.9,276.7,87.9,277.9,91z"/>
<path class="st1" d="M287.6,154.6c-1.1,15.1-4.5,29.5-9.9,42.9H10.3c-5.4-13.4-8.8-27.8-9.9-42.9H287.6z"/>
<path class="st1" d="M287.3,130.1H0.7c0.7-7.3,1.9-14.4,3.7-21.3h279.3C285.4,115.7,286.6,122.8,287.3,130.1z"/>
<path class="st2" d="M62.6,262.8c-1.8-1.2-3.6-2.5-5.3-3.8C55.1,221.1,49,183.7,39,147l4.9-1.3C54.3,184,60.6,223.2,62.6,262.8z"/>
<path class="st2" d="M35.5,126c-7.3,14.6-2.6,32,11.1,40.8C55.2,152.9,49.9,133.7,35.5,126z"/>
<path class="st2" d="M58.8,244.3c-0.7-14.4,2.6-55.1,2.2-55.2c1-0.2,9.8,62.1-1,73"/>
<path class="st2" d="M55.1,212c-1.6-14.8-19.3-51-19.6-50.7c1-0.1,11.8,58.9,21.9,68.4"/>
<g>
	<path class="st3" d="M48.2,251.5c-1.8-1.6-3.5-3.2-5.2-4.9c-0.7-10.6-2.1-21.1-4.1-31.6c-5.4-28.3-15.2-55.3-29.1-80.5l4.3-2.4
		c14.2,25.6,24.2,53.2,29.7,82C46.1,226.5,47.6,239,48.2,251.5z"/>
	<path class="st3" d="M0.4,114.5c-2.5,16.5,6.1,32,21.4,38.4C27.4,137.1,16.9,118.2,0.4,114.5z"/>
	<path class="st3" d="M43.9,230.5c-0.7-14.7-2.8-57.1-3.7-57.3c-0.1-0.1,5.8,15.5,8.2,33.1c2.8,17.5,2.1,36.9-2.8,42.5"/>
	<path class="st3" d="M37.5,197.6c-2.9-15.4-27.4-48.7-27.9-48.1c-0.1,0,6.9,13.7,13.2,29.2c6.7,15.3,12.8,32.4,18.6,36.8"/>
	<path class="st3" d="M76.3,271.1c-1.7-0.9-3.4-1.9-5.1-2.9C70.4,222.8,64,177.6,52,133.7l4.9-1.3C69.3,177.7,75.8,224.2,76.3,271.1
		z"/>
	<path class="st3" d="M48.5,112.7c-7.3,14.6-2.6,32,11.1,40.8C68.2,139.5,63,120.4,48.5,112.7z"/>
	<path class="st3" d="M71.8,230.9c-0.7-14.4,2.6-55.1,2.2-55.2c1-0.2,9.8,62.1-1,73"/>
	<path class="st3" d="M68.1,198.6c-1.6-14.8-19.3-51-19.6-50.7c1-0.1,11.8,58.9,21.9,68.4"/>
	<path class="st3" d="M90.8,277.9c-0.8-0.3-1.7-0.7-2.5-1c0-8-0.3-16-0.7-24.1c-0.8-15.3-2.2-30.5-4.2-45.8l5-0.7
		c3.2,24.1,4.9,48.3,4.9,72.5C92.6,278.5,91.7,278.2,90.8,277.9z"/>
	<path class="st3" d="M82.8,185.7c-9.2,13.5-6.7,31.4,5.7,41.9C98.8,215,96.1,195.3,82.8,185.7z"/>
	<path class="st3" d="M99.6,281c-1.7-0.6-3.4-1.1-5.1-1.8c2.6-14.1,5.4-27.6,5.2-27.7C100.2,251.5,100.6,265.4,99.6,281z"/>
	<path class="st3" d="M90.9,273.5l0,4.3c-0.8-0.3-1.7-0.7-2.5-1c-1.1-0.4-2.1-0.9-3.2-1.4c-4.4-20.7-6.2-52.7-7-54.7
		c0.7,1.4,6,17.2,9.5,32C89.6,260.8,91,268.5,90.9,273.5z"/>
</g>
<path class="st2" d="M112.3,284.5c-0.1,0-0.2,0-0.2-0.1c-1.6-0.4-3.3-0.8-4.9-1.2c0,0.1,0,0.3,0,0.4c0-0.1,0-0.3,0-0.4
	c-1.9-39.3-8.1-78.4-18.5-116.5l4.9-1.3c7,25.7,12.1,51.7,15.3,78c1.6,12.9,2.7,25.8,3.4,38.8C112.2,282.9,112.3,283.7,112.3,284.5z
	"/>
<path class="st2" d="M85.1,145.7c-7.3,14.6-2.6,32,11.1,40.8C104.8,172.6,99.6,153.4,85.1,145.7z"/>
<path class="st2" d="M108.4,264c-0.7-14.4,2.6-55.1,2.2-55.2c1-0.2,9.8,62.1-1,73"/>
<path class="st2" d="M104.7,231.7c-1.6-14.8-19.3-51-19.6-50.7c1-0.1,11.8,58.9,21.9,68.4"/>
<path class="st3" d="M112.2,282.1c0,0.8-0.1,1.5-0.1,2.3c-1.6-0.4-3.3-0.8-4.9-1.2c0.8-13.3,1.4-26.6,1.7-39.9
	c0.7-31.2-0.1-62.4-2.4-93.3l4.9-0.4C114.6,193.6,114.8,238,112.2,282.1z"/>
<path class="st3" d="M107.1,129c-10.2,12.6-8.9,30.8,3.1,41.7C121,158.6,119.6,139.4,107.1,129z"/>
<path class="st3" d="M111.2,248.3c0.7-14.3,9.7-53.6,9.5-53.7c0.5,0,1.1,61.5-10.1,71.3"/>
<path class="st3" d="M111.5,216.1c0.2-14.6-11.1-53-11.3-52.8c0.5,0,1.8,60,11.2,70.4"/>
<path class="st3" d="M134.8,259.1c-0.1,9.5-0.2,19-0.6,28.5c-0.8-0.1-1.7-0.1-2.5-0.2c-0.8-0.1-1.6-0.1-2.4-0.2
	c1.2-35.5,0.5-71-2.1-106.3l4.9-0.4C134.1,206.7,135,232.9,134.8,259.1z"/>
<path class="st3" d="M128,160c-10.2,12.6-8.9,30.8,3.1,41.7C141.9,189.6,140.5,170.4,128,160z"/>
<path class="st3" d="M136.2,287.8c-0.7,0-1.3-0.1-2-0.1c-0.8-0.1-1.7-0.1-2.5-0.2l0.3-8.2c0.2-4.7,1.4-12.2,2.8-20.1
	c2.8-15.9,6.9-33.5,6.7-33.6C142,225.5,142.4,267.7,136.2,287.8z"/>
<path class="st3" d="M132.3,247.1c0.2-14.6-11.1-53-11.3-52.8c0.5,0,1.8,60,11.2,70.4"/>
<path class="st2" d="M249,147c-10,36.7-16.1,74.1-18.3,111.9c-1.7,1.3-3.5,2.6-5.3,3.8c2-39.5,8.2-78.8,18.7-117.1L249,147z"/>
<path class="st2" d="M252.5,126c7.3,14.6,2.6,32-11.1,40.8C232.8,152.9,238.1,133.7,252.5,126z"/>
<path class="st2" d="M229.2,244.3c0.7-14.4-2.6-55.1-2.2-55.2c-1-0.2-9.8,62.1,1,73"/>
<path class="st2" d="M232.9,212c1.6-14.8,19.3-51,19.6-50.7c-1-0.1-11.8,58.9-21.9,68.4"/>
<path class="st3" d="M278.2,134.5c-14,25.1-23.8,52.2-29.1,80.5c-2,10.5-3.3,21-4.1,31.6c-1.7,1.7-3.4,3.3-5.2,4.9
	c0.6-12.5,2.1-25,4.4-37.4c5.5-28.8,15.4-56.4,29.7-82L278.2,134.5z"/>
<path class="st3" d="M287.6,114.5c2.5,16.5-6.1,32-21.4,38.4C260.6,137.1,271.1,118.2,287.6,114.5z"/>
<path class="st3" d="M244.1,230.5c0.7-14.7,2.8-57.1,3.7-57.3c0.1-0.1-5.8,15.5-8.2,33.1c-2.8,17.5-2.1,36.9,2.8,42.5"/>
<path class="st3" d="M250.4,197.6c2.9-15.4,27.4-48.7,27.9-48.1c0.1,0-6.9,13.7-13.2,29.2c-6.7,15.3-12.8,32.4-18.6,36.8"/>
<path class="st3" d="M236,133.7c-12,44-18.4,89.1-19.1,134.6c-1.7,1-3.4,2-5.1,2.9c0.5-46.9,7-93.4,19.3-138.8L236,133.7z"/>
<path class="st3" d="M239.5,112.7c7.3,14.6,2.6,32-11.1,40.8C219.8,139.5,225,120.4,239.5,112.7z"/>
<path class="st3" d="M216.2,230.9c0.7-14.4-2.6-55.1-2.2-55.2c-1-0.2-9.8,62.1,1,73"/>
<path class="st3" d="M219.9,198.6c1.6-14.8,19.3-51,19.6-50.7c-1-0.1-11.8,58.9-21.9,68.4"/>
<path class="st3" d="M204.5,207c-2.1,15.2-3.5,30.5-4.2,45.8c-0.4,8-0.6,16-0.7,24.1c-0.8,0.3-1.7,0.7-2.5,1c-0.9,0.3-1.7,0.7-2.6,1
	c0-24.2,1.7-48.4,4.9-72.5L204.5,207z"/>
<path class="st3" d="M205.2,185.7c9.2,13.5,6.7,31.4-5.7,41.9C189.2,215,191.9,195.3,205.2,185.7z"/>
<path class="st3" d="M193.5,279.3c-1.7,0.6-3.4,1.2-5.1,1.8c-1-15.7-0.6-29.5-0.2-29.4C188.1,251.7,190.9,265.2,193.5,279.3z"/>
<path class="st3" d="M209.8,220.8c-0.8,2-2.6,34-7,54.7c-1.1,0.5-2.1,0.9-3.2,1.4c-0.8,0.3-1.7,0.7-2.5,1l0-4.3
	c-0.1-5,1.3-12.8,3.2-20.8C203.8,238,209.1,222.2,209.8,220.8z"/>
<path class="st2" d="M199.4,166.7c-10.4,38.2-16.6,77.2-18.5,116.5c0,0.1,0,0.2,0,0.3c0-0.1,0-0.2,0-0.3c-1.6,0.4-3.2,0.8-4.9,1.2
	c-0.1,0-0.2,0-0.3,0.1c0-0.8,0.1-1.6,0.1-2.4c0.7-13,1.8-25.9,3.4-38.8c3.2-26.3,8.3-52.3,15.3-77.9L199.4,166.7z"/>
<path class="st2" d="M202.9,145.7c7.3,14.6,2.6,32-11.1,40.8C183.2,172.6,188.4,153.4,202.9,145.7z"/>
<path class="st2" d="M179.6,264c0.7-14.4-2.6-55.1-2.2-55.2c-1-0.2-9.8,62.1,1,73"/>
<path class="st2" d="M183.3,231.7c1.6-14.8,19.3-51,19.6-50.7c-1-0.1-11.8,58.9-21.9,68.4"/>
<path class="st3" d="M179.2,243.3c0.3,13.3,0.8,26.7,1.7,40c-1.6,0.4-3.2,0.8-4.9,1.2c-0.1-0.8-0.1-1.6-0.1-2.4
	c-2.6-44.1-2.4-88.5,0.9-132.5l4.9,0.4C179.3,181,178.5,212.1,179.2,243.3z"/>
<path class="st3" d="M180.9,129c10.2,12.6,8.9,30.8-3.1,41.7C167,158.6,168.4,139.4,180.9,129z"/>
<path class="st3" d="M176.8,248.3c-0.7-14.3-9.7-53.6-9.5-53.7c-0.5,0-1.1,61.5,10.1,71.3"/>
<path class="st3" d="M176.5,216.1c-0.2-14.6,11.1-53,11.3-52.8c-0.5,0-1.8,60-11.2,70.4"/>
<path class="st3" d="M158.7,287.3c-0.8,0.1-1.6,0.2-2.4,0.2c-0.8,0.1-1.7,0.1-2.5,0.2c-0.3-9.5-0.5-19-0.6-28.5
	c-0.2-26.2,0.7-52.5,2.6-78.5l4.9,0.4C158.2,216.2,157.5,251.8,158.7,287.3z"/>
<path class="st3" d="M160,160c10.2,12.6,8.9,30.8-3.1,41.7C146.1,189.6,147.5,170.4,160,160z"/>
<path class="st3" d="M156.3,287.5c-0.8,0.1-1.7,0.1-2.5,0.2c-0.7,0-1.3,0.1-2,0.1c-6.2-20.1-5.7-62.3-5.3-62.2
	c-0.1,0.1,3.9,17.7,6.7,33.6c1.4,7.9,2.6,15.4,2.8,20.1L156.3,287.5z"/>
<path class="st3" d="M155.7,247.1c-0.2-14.6,11.1-53,11.3-52.8c-0.5,0-1.8,60-11.2,70.4"/>
<path class="st4" d="M268.5,71.6h-249c2.6-4.5,5.5-8.9,8.6-13.1C54.4,23,96.5,0,144,0c47.5,0,89.6,23,115.9,58.5
	C263,62.7,265.9,67.1,268.5,71.6z"/>
<path class="st5" d="M268.5,71.6h-249c2.6-4.5,5.5-8.9,8.6-13.1c0.1,0,0.2,0,0.3,0c5.7,0,10.7,3.5,12.8,8.4c2.2-5,7.1-8.4,12.8-8.4
	s10.7,3.5,12.8,8.4c2.2-5,7.1-8.4,12.8-8.4c5.7,0,10.7,3.5,12.8,8.4c2.2-5,7.1-8.4,12.8-8.4c5.7,0,10.7,3.5,12.8,8.4
	c2.2-5,7.1-8.4,12.8-8.4c5.7,0,10.7,3.5,12.8,8.4c2.2-5,7.1-8.4,12.8-8.4c5.7,0,10.7,3.5,12.8,8.4c2.2-5,7.1-8.4,12.8-8.4
	c5.7,0,10.7,3.5,12.8,8.4c2.2-5,7.1-8.4,12.8-8.4c5.7,0,10.7,3.5,12.8,8.4c2.2-5,7.1-8.4,12.8-8.4c5.7,0,10.7,3.5,12.8,8.4
	c2.2-5,7.1-8.4,12.8-8.4c0.1,0,0.2,0,0.3,0C263,62.7,265.9,67.1,268.5,71.6z"/>
</svg>
