<?xml version="1.0" encoding="utf-8"?>
<!-- Generator: Adobe Illustrator 23.0.3, SVG Export Plug-In . SVG Version: 6.00 Build 0)  -->
<svg version="1.1" id="Layer_1" xmlns="http://www.w3.org/2000/svg" xmlns:xlink="http://www.w3.org/1999/xlink" x="0px" y="0px"
	 viewBox="0 0 288 288" style="enable-background:new 0 0 288 288;" xml:space="preserve">
<style type="text/css">
	.st0{fill:#91F5F0;}
	.st1{fill:#00C9C9;}
	.st2{fill:#FFD400;}
	.st3{fill:#FFA300;}
	.st4{fill:#3FB24F;}
	.st5{fill:#139048;}
	.st6{fill:#50CC5C;}
</style>
<path class="st0" d="M287.2,143.5c0,79.3-64.2,143.5-143.5,143.5S0.2,222.8,0.2,143.5S64.5,0,143.7,0S287.2,64.2,287.2,143.5z"/>
<path class="st1" d="M284.3,172.3l-84.7-84.7l-29.3,102.7l64.2,64.2C259.6,234,277.6,205.2,284.3,172.3z"/>
<path class="st2" d="M223.3,143.5c0,43.7-35.4,79-79,79c-43.7,0-79-35.4-79-79c0-43.7,35.4-79,79-79
	C187.9,64.5,223.3,99.8,223.3,143.5z"/>
<path class="st3" d="M144.3,64.5c-0.1,0-0.2,0-0.2,0v158.1c0.1,0,0.2,0,0.2,0c43.7,0,79-35.4,79-79
	C223.3,99.8,187.9,64.5,144.3,64.5z"/>
<path class="st4" d="M287.8,143.5c0,79.3-64.2,143.5-143.5,143.5S0.8,222.8,0.8,143.5H287.8z"/>
<path class="st5" d="M144.1,143.5V287c0.1,0,0.2,0,0.2,0c79.3,0,143.5-64.2,143.5-143.5H144.1z"/>
<path class="st6" d="M15.7,207.2c13.5,27.3,35.5,49.6,62.4,63.6l66.1-127.4L15.7,207.2z"/>
<path class="st4" d="M272.9,207.2c-13.5,27.3-35.5,49.6-62.4,63.6l-66.1-127.4L272.9,207.2z"/>
</svg>
