<?xml version="1.0" encoding="utf-8"?>
<!-- Generator: Adobe Illustrator 23.0.3, SVG Export Plug-In . SVG Version: 6.00 Build 0)  -->
<svg version="1.1" id="Layer_1" xmlns="http://www.w3.org/2000/svg" xmlns:xlink="http://www.w3.org/1999/xlink" x="0px" y="0px"
	 viewBox="0 0 288 288" style="enable-background:new 0 0 288 288;" xml:space="preserve">
<style type="text/css">
	.st0{fill:#EA8953;}
	.st1{fill:#B0673E;}
	.st2{fill:#FF8257;}
	.st3{fill:#FF7045;}
	.st4{fill:#FFA480;}
	.st5{fill:#FF936B;}
	.st6{fill:#595959;}
	.st7{fill:#474747;}
	.st8{fill:#F24500;}
	.st9{fill:#D13400;}
</style>
<path class="st0" d="M288,144c0,79.5-64.5,144-144,144S0,223.5,0,144S64.5,0,144,0S288,64.5,288,144z"/>
<path class="st1" d="M288,144c0-18.3-3.4-35.8-9.7-51.9l-28.5-28.5L74.2,221.6l66.4,66.4c1.2,0,2.3,0,3.5,0
	C223.5,288,288,223.5,288,144z"/>
<path class="st2" d="M75.4,56.4c9.2-1.7,18.5,3.3,24.2,13.9c3.6,6.5,5.7,14.8,5.7,23.8c0,21.2-11.8,21.4-26.4,21.4
	s-40.7-30.8-40.7-52L75.4,56.4z"/>
<path class="st3" d="M212.6,56.4c-9.2-1.7-18.5,3.3-24.2,13.9c-3.6,6.5-5.7,14.8-5.7,23.8c0,21.2,11.8,21.4,26.4,21.4
	s40.7-30.8,40.7-52L212.6,56.4z"/>
<path class="st4" d="M242,152.9c0,54.1-43.9,98-98,98s-98-43.9-98-98s43.9-98,98-98S242,98.7,242,152.9z"/>
<path class="st5" d="M144,54.9c-0.1,0-0.2,0-0.2,0v196c0.1,0,0.2,0,0.2,0c54.1,0,98-43.9,98-98S198.1,54.9,144,54.9z"/>
<path class="st2" d="M190.7,176.7c0,25.8-20.9,46.7-46.7,46.7s-46.7-20.9-46.7-46.7c0-25.8,20.9-46.7,46.7-46.7
	S190.7,150.9,190.7,176.7z"/>
<path class="st3" d="M144,129.9c-0.1,0-0.2,0-0.2,0v93.5c0.1,0,0.2,0,0.2,0c25.8,0,46.7-20.9,46.7-46.7
	C190.7,150.9,169.8,129.9,144,129.9z"/>
<path class="st6" d="M109.5,128.5c0,4.2-3.4,7.7-7.7,7.7s-7.7-3.4-7.7-7.7s3.4-7.7,7.7-7.7S109.5,124.2,109.5,128.5z"/>
<path class="st7" d="M193.8,128.5c0,4.2-3.4,7.7-7.7,7.7s-7.7-3.4-7.7-7.7s3.4-7.7,7.7-7.7S193.8,124.2,193.8,128.5z"/>
<path class="st8" d="M137.5,176.7c0,8-6.5,14.4-14.4,14.4c-8,0-14.4-6.5-14.4-14.4c0-8,6.5-14.4,14.4-14.4
	C131,162.3,137.5,168.7,137.5,176.7z"/>
<path class="st9" d="M179.4,176.7c0,8-6.5,14.4-14.4,14.4c-8,0-14.4-6.5-14.4-14.4c0-8,6.5-14.4,14.4-14.4
	C172.9,162.3,179.4,168.7,179.4,176.7z"/>
</svg>
