<?xml version="1.0" encoding="utf-8"?>
<!-- Generator: Adobe Illustrator 23.0.3, SVG Export Plug-In . SVG Version: 6.00 Build 0)  -->
<svg version="1.1" id="Capa_1" xmlns="http://www.w3.org/2000/svg" xmlns:xlink="http://www.w3.org/1999/xlink" x="0px" y="0px"
	 viewBox="0 0 288 288" style="enable-background:new 0 0 288 288;" xml:space="preserve">
<style type="text/css">
	.st0{fill:#EA8953;}
	.st1{fill:#B0673E;}
	.st2{fill:#FFFFFF;}
	.st3{fill:#FFF5CB;}
	.st4{fill:#FFB74F;}
	.st5{fill:#FF9A00;}
	.st6{fill:#FFDBA9;}
	.st7{fill:#FFC473;}
	.st8{fill:#78777F;}
	.st9{fill:#57555C;}
</style>
<g id="XMLID_1153_">
	<g id="XMLID_2117_">
		<g id="XMLID_2118_">
			<g id="XMLID_2119_">
				<g id="XMLID_2120_">
					<g id="XMLID_2121_">
						<g id="XMLID_2123_">
							<g id="XMLID_2124_">
								<g id="XMLID_2125_">
									<g id="XMLID_2126_">
										<g id="XMLID_2132_">
											<g id="XMLID_2133_">
												<g id="XMLID_2134_">
													<g id="XMLID_2136_">
														<circle id="XMLID_2295_" class="st0" cx="144" cy="144" r="144"/>
													</g>
												</g>
											</g>
										</g>
									</g>
								</g>
							</g>
						</g>
					</g>
				</g>
			</g>
		</g>
	</g>
	<path id="XMLID_1180_" class="st1" d="M288,144c0-9.6-1-19-2.8-28.1l-19.1-18.4c-1.2-2.1-4.4-3.5-10.1-3.6c-3.3,0-6.5-0.2-9.8-0.4
		l-36-36.1c-5-5.8-12.5-9.5-20.8-9.5c-2.8,0-5.5,0.4-8,1.2l-10.3-10.3C164.4,31.5,154.7,27,144,27c-15.6,0-29,9.6-34.5,23.2
		c-3.4-1.5-7.1-2.3-11-2.3C83.3,47.9,71,60.2,71,75.4c0,4.8,1.2,9.2,3.3,13.1c-11.3,2.5-26.6,5.1-42.4,5.3c-12.8,0.2-13,7.1-5.8,14
		L51,132.7c-0.6,2.3-0.9,4.7-0.9,7.1c0,8.8,4.2,16.6,10.6,21.7c1.4,1.8,3.1,3.5,4.9,4.9c0.2,0.3,0.4,0.5,0.6,0.8
		c-1.8,3.9-2.9,8.2-2.9,12.8c0,8.2,3.2,15.5,8.5,21l16.4,16.3c1.8,4.7,4.9,8.7,8.8,11.8l58.5,58.5C229.6,281.7,288,219.7,288,144z"
		/>
	<g id="XMLID_1171_">
		<g id="XMLID_1174_">
			<path id="XMLID_1179_" class="st2" d="M77.4,112.4c-15.1,0-27.4,12.3-27.4,27.4c0,11.5,7.1,21.3,17.1,25.4
				c-2.4,4.4-3.8,9.4-3.8,14.8c0,14.2,9.8,26.2,23.1,29.4c1,14.2,12.9,25.4,27.3,25.4c1.5,0,3-0.1,4.4-0.4
				c3.7,10.7,13.9,18.4,25.9,18.4s22.1-7.7,25.9-18.4c1.4,0.2,2.9,0.4,4.4,0.4c14.5,0,26.3-11.2,27.3-25.4
				c13.3-3.2,23.1-15.2,23.1-29.4c0-5.4-1.4-10.4-3.8-14.8c10-4.1,17.1-13.9,17.1-25.4c0-15.1-12.3-27.4-27.4-27.4H77.4z"/>
			<path id="XMLID_1178_" class="st3" d="M220.9,165.2c2.4,4.4,3.8,9.4,3.8,14.8c0,14.2-9.8,26.2-23.1,29.4
				c-1,14.2-12.9,25.4-27.3,25.4c-1.5,0-3-0.1-4.4-0.4c-3.7,10.7-13.9,18.4-25.9,18.4V112.4h66.6c0.3,0,0.7,0,1,0
				C226.3,113,238,125,238,139.8C238,151.3,230.9,161.2,220.9,165.2z"/>
			<g id="XMLID_2240_">
				<path id="XMLID_1762_" class="st4" d="M91.9,84c0,0-29.3,9.5-60,9.9s10.8,39.3,53.7,24.8L91.9,84z"/>
				<path id="XMLID_2241_" class="st5" d="M196.1,84c0,0,29.3,9.5,60,9.9s-10.8,39.3-53.7,24.8L196.1,84z"/>
			</g>
			<path id="XMLID_2200_" class="st6" d="M144,54.5c-36.1,0-73.6,31.5-67.2,73.1c6.4,41.6,39.9,101.5,67.2,101.5
				s60.7-59.9,67.2-101.5S180.1,54.5,144,54.5z"/>
			<path id="XMLID_1177_" class="st7" d="M211.2,127.6c-6.4,41.6-40,101.5-67.2,101.5V54.5c26.2,0,53.2,16.6,63.5,41.7
				c2.1,5.1,3.5,10.5,4.1,16.2C212.1,117.3,212,122.4,211.2,127.6z"/>
			<g id="XMLID_2275_">
				<circle id="XMLID_2242_" class="st8" cx="111" cy="152" r="8.5"/>
				<circle id="XMLID_2276_" class="st9" cx="177" cy="152" r="8.5"/>
			</g>
			<path id="XMLID_2379_" class="st2" d="M189.5,47.9c-3.9,0-7.6,0.8-11,2.3C173,36.6,159.6,27,144,27s-29,9.6-34.5,23.2
				c-3.4-1.5-7.1-2.3-11-2.3C83.3,47.9,71,60.2,71,75.4C71,90.6,83.3,103,98.5,103c8.7,0,16.4-4,21.4-10.2
				c6.5,5.5,14.9,8.9,24.1,8.9c9.2,0,17.6-3.3,24.1-8.9c5,6.2,12.8,10.2,21.4,10.2c15.2,0,27.5-12.3,27.5-27.5
				S204.7,47.9,189.5,47.9z"/>
			<path id="XMLID_1176_" class="st3" d="M217,75.4c0,8.3-3.7,15.8-9.5,20.8c-4.8,4.2-11.1,6.7-18,6.7c-8.7,0-16.4-4-21.4-10.2
				c-6.5,5.5-14.9,8.9-24.1,8.9V27c15.6,0,29,9.6,34.5,23.2c3.4-1.5,7.1-2.3,11-2.3C204.7,47.9,217,60.2,217,75.4z"/>
			<path id="XMLID_1175_" class="st4" d="M155.9,198c0.6,0,1.3,0.1,1.9,0.3c6.3-10.2-3.9-12.6-13.8-12.6c-9.9,0-20.1,2.4-13.8,12.6
				c0.6-0.2,1.2-0.3,1.9-0.3c3.2,0,5.9,2.6,5.9,5.9c0,1.1-0.3,2.2-0.9,3.1c3.4,3.1,5.6,3.4,6.9,3.4c1.4,0,3.6-0.2,6.9-3.4
				c-0.5-0.9-0.9-1.9-0.9-3.1C150.1,200.6,152.7,198,155.9,198z"/>
		</g>
		<path id="XMLID_1173_" class="st5" d="M157.8,198.3c-0.6-0.2-1.2-0.3-1.9-0.3c-3.2,0-5.9,2.6-5.9,5.9c0,1.1,0.3,2.2,0.9,3.1
			c-3.4,3.1-5.6,3.4-6.9,3.4v-24.6C153.9,185.7,164.1,188.1,157.8,198.3z"/>
	</g>
</g>
</svg>
