<?xml version="1.0" encoding="utf-8"?>
<!-- Generator: Adobe Illustrator 23.0.3, SVG Export Plug-In . SVG Version: 6.00 Build 0)  -->
<svg version="1.1" id="Capa_1" xmlns="http://www.w3.org/2000/svg" xmlns:xlink="http://www.w3.org/1999/xlink" x="0px" y="0px"
	 viewBox="0 0 288 288" style="enable-background:new 0 0 288 288;" xml:space="preserve">
<style type="text/css">
	.st0{fill:#273B7A;}
	.st1{fill:#121149;}
	.st2{fill:#77767E;}
	.st3{fill:#ACABB1;}
	.st4{fill:#898890;}
	.st5{fill:#57565C;}
</style>
<circle class="st0" cx="144" cy="144" r="144"/>
<path class="st1" d="M270.9,212.1L225.7,85.6L116.8,187.1l-65.6,5.9l64.1,90.2c11,4.1,19.7,4.9,28.7,4.9
	C198.9,288,246.6,257.3,270.9,212.1z"/>
<polygon class="st2" points="143.7,38.3 48.9,93.4 48.9,194.6 144.3,249.8 239.1,194.6 239.1,93.4 "/>
<polygon class="st3" points="239.1,93.4 144.3,148.5 64.1,102.1 48.9,93.4 143.7,38.3 207.2,61.6 "/>
<polygon class="st2" points="239.1,93.4 239.1,194.6 144.3,249.8 144.3,148.5 172.4,132.1 208.4,94.7 "/>
<g>
	<polygon class="st4" points="144.3,148.5 144.3,249.8 48.9,194.6 48.9,93.4 86.2,90.1 	"/>
	<path class="st4" d="M223.4,124.6c6.4-3.7,11.6-3.7,11.6,0c0,3.7-5.2,9.7-11.5,13.3c-6.4,3.7-11.6,3.7-11.6,0
		C211.8,134.3,217,128.3,223.4,124.6"/>
</g>
<path class="st5" d="M194.7,158.8c4.4-2.5,7.9-2.4,7.9,0.2c0,2.6-3.5,6.8-7.9,9.3c-4.4,2.5-7.9,2.4-7.9-0.2
	C186.8,165.5,190.4,161.3,194.7,158.8"/>
<g>
	<path class="st2" d="M108.1,163.4c4.4,2.5,7.9,6.7,7.9,9.3c0,2.6-3.5,2.7-7.9,0.2c-4.4-2.5-7.9-6.7-7.9-9.3
		C100.2,161,103.7,160.9,108.1,163.4"/>
	<path class="st2" d="M61.7,176.6c3.7,2.5,6.8,6.7,6.8,9.3c0,2.6-3.1,2.7-6.8,0.2c-3.8-2.5-6.8-6.7-6.8-9.3
		C54.9,174.2,57.9,174.1,61.7,176.6"/>
</g>
<g>
	<path class="st5" d="M124.1,212.6c0.4,0.3,0.9,0.6,1.4,0.9c4,3,6.9,8,6.5,11.2c-0.4,2.8-3.2,3.3-6.7,1.3c-0.4-0.3-0.9-0.6-1.4-0.9
		c-4-3-6.9-8-6.5-11.2C117.8,211.1,120.7,210.6,124.1,212.6"/>
	<path class="st5" d="M64.9,125.5c0.2,0.1,0.4,0.3,0.6,0.4c1.8,1.3,3.1,3.6,2.9,5c-0.2,1.3-1.5,1.5-3,0.6c-0.2-0.1-0.4-0.3-0.6-0.4
		c-1.8-1.3-3.1-3.6-2.9-5C62.1,124.9,63.4,124.7,64.9,125.5"/>
</g>
<path class="st3" d="M76.1,161.1c2,1.2,3.6,4.2,3.6,6.9c0,2.6-1.7,3.8-3.7,2.6c-2-1.2-3.6-4.2-3.6-6.8
	C72.5,161.2,74.1,160,76.1,161.1"/>
<path class="st5" d="M167.1,207.8c3.9-2.2,7-1.9,7,0.7c0,2.6-3.1,6.5-7,8.8c-3.9,2.2-7,1.9-7-0.7C160.1,214,163.3,210.1,167.1,207.8
	"/>
<g>
	<path class="st4" d="M218.7,172.6c3.9-2.2,7-2,7,0.6c0,2.6-3.1,6.4-7,8.7s-7,2-7-0.6C211.7,178.8,214.8,174.9,218.7,172.6"/>
	<path class="st4" d="M160.5,162.2c2.1-1.2,3.7-0.5,3.7,1.5c0,2-1.7,4.6-3.7,5.8c-2.1,1.2-3.7,0.5-3.7-1.5
		C156.8,166,158.4,163.4,160.5,162.2"/>
</g>
</svg>
