<?xml version="1.0" encoding="utf-8"?>
<!-- Generator: Adobe Illustrator 23.0.3, SVG Export Plug-In . SVG Version: 6.00 Build 0)  -->
<svg version="1.1" id="Layer_1" xmlns="http://www.w3.org/2000/svg" xmlns:xlink="http://www.w3.org/1999/xlink" x="0px" y="0px"
	 viewBox="0 0 288 288" style="enable-background:new 0 0 288 288;" xml:space="preserve">
<style type="text/css">
	.st0{fill:#FF583E;}
	.st1{fill:#DB0404;}
	.st2{fill:#FFD400;}
	.st3{fill:#FFA300;}
	.st4{fill:#3FB24F;}
	.st5{fill:#139048;}
	.st6{fill:#50CC5C;}
	.st7{fill:#FF5419;}
	.st8{fill:#B54324;}
	.st9{fill:#A02E13;}
	.st10{fill:#EAA22F;}
	.st11{fill:#E09112;}
</style>
<path class="st0" d="M287.1,143.8c0,79.1-64.1,143.2-143.2,143.2S0.7,222.8,0.7,143.8S64.8,0.6,143.9,0.6S287.1,64.7,287.1,143.8z"
	/>
<path class="st1" d="M284.2,172.5L199.7,88l-29.2,102.5l64.1,64.1C259.5,234.1,277.5,205.4,284.2,172.5z"/>
<path class="st2" d="M223.3,143.8c0,43.6-35.3,78.9-78.9,78.9c-43.6,0-78.9-35.3-78.9-78.9c0-43.6,35.3-78.9,78.9-78.9
	C188,64.9,223.3,100.2,223.3,143.8z"/>
<path class="st3" d="M144.4,64.9c-0.1,0-0.2,0-0.2,0v157.7c0.1,0,0.2,0,0.2,0c43.6,0,78.9-35.3,78.9-78.9
	C223.3,100.2,188,64.9,144.4,64.9z"/>
<path class="st4" d="M287.6,143.8c0,79.1-64.1,143.2-143.2,143.2S1.3,222.8,1.3,143.8H287.6z"/>
<path class="st5" d="M144.2,143.8v143.2c0.1,0,0.2,0,0.2,0c79.1,0,143.2-64.1,143.2-143.2H144.2z"/>
<path class="st6" d="M16.1,207.4c13.5,27.2,35.4,49.5,62.3,63.5l66-127.1L16.1,207.4z"/>
<path class="st4" d="M272.7,207.4c-13.5,27.2-35.4,49.5-62.3,63.5l-66-127.1L272.7,207.4z"/>
<path class="st5" d="M246,245.5c-30.3-14.1-65.9-31.8-97-50.4C91.7,160.8,31.6,139.7,1.7,130.4c-0.4,4.5-0.7,9.1-0.7,13.7
	c0,79.2,64.2,143.5,143.5,143.5C184.2,287.6,220.1,271.5,246,245.5z"/>
<g>
	<path class="st7" d="M126.3,183.7l-3-2.2c-2.4,1.2-4.7,3.7-5.9,5.3c0.4,2.9,0.7,5.6,1.2,7.9C121.3,187.6,126.3,183.7,126.3,183.7z"
		/>
	<path class="st8" d="M96.1,215.7c0,0-0.1,0-0.1,0C96,215.7,96.1,215.7,96.1,215.7z"/>
	<path class="st8" d="M98.1,215.7c0,0-0.1,0-0.1,0C98,215.7,98.1,215.7,98.1,215.7z"/>
	<path class="st8" d="M95.4,215.7c0,0-0.1,0-0.1,0C95.3,215.7,95.4,215.7,95.4,215.7z"/>
	<path class="st8" d="M97.4,215.7C97.4,215.7,97.4,215.7,97.4,215.7C97.4,215.7,97.4,215.7,97.4,215.7z"/>
	<path class="st8" d="M106.7,216.4c4.9,0,11.8-2.2,16.5-6.5c0,0-1.8-2.7-3.7-10.6c1.8,7.9,3.7,10.6,3.7,10.6
		C118.5,214.3,111.6,216.4,106.7,216.4z"/>
	<path class="st8" d="M98.7,215.7c0,0-0.1,0-0.1,0C98.6,215.7,98.6,215.7,98.7,215.7z"/>
	<path class="st8" d="M94.6,184.6c-12.2,0-22-1.4-22.1-3.2c0,0.1,0,1.3-0.1,3.3l2.3,4c0,0,2.4,5.2-1.9,11.1l-1.7-2.8
		c-0.9,5.2-2.4,10.4-5,12.9c0,0,8.7,6.9,19,6.3c3.9-0.2,6.9-0.4,9.4-0.5c0,0,0,0,0,0V184.6z"/>
	<path class="st8" d="M102.7,216c0,0-0.1,0-0.1,0C102.6,216,102.6,216,102.7,216z"/>
	<path class="st8" d="M103.2,216.1c-0.1,0-0.1,0-0.2,0C103.1,216,103.1,216,103.2,216.1z"/>
	<path class="st8" d="M101,215.8c-0.1,0-0.1,0-0.2,0C100.9,215.8,100.9,215.8,101,215.8z"/>
	<path class="st8" d="M101.5,215.9c0,0-0.1,0-0.1,0C101.4,215.8,101.5,215.8,101.5,215.9z"/>
	<path class="st8" d="M102,215.9C102,215.9,102,215.9,102,215.9C102,215.9,102,215.9,102,215.9z"/>
	<path class="st8" d="M103.7,216.1c0,0-0.1,0-0.1,0C103.6,216.1,103.6,216.1,103.7,216.1z"/>
	<path class="st8" d="M99.2,215.7C99.2,215.7,99.2,215.7,99.2,215.7C99.2,215.7,99.2,215.7,99.2,215.7z"/>
	<path class="st8" d="M99.8,215.7C99.8,215.7,99.8,215.7,99.8,215.7C99.8,215.7,99.8,215.7,99.8,215.7z"/>
	<path class="st8" d="M100.5,215.8c0,0-0.1,0-0.1,0C100.4,215.8,100.4,215.8,100.5,215.8z"/>
	<path class="st9" d="M117.4,186.8c-0.2-1.7-0.4-3.5-0.6-5.4h0c0,1.7-9.9,3.2-22.2,3.2c0,0-0.1,0-0.1,0v31.2c0,0,0,0,0,0
		c0.2,0,0.5,0,0.7,0c0,0,0.1,0,0.1,0c0.2,0,0.4,0,0.6,0c0,0,0.1,0,0.1,0c0.4,0,0.9,0,1.3,0c0,0,0,0,0.1,0c0.2,0,0.3,0,0.5,0
		c0,0,0.1,0,0.1,0c0.1,0,0.3,0,0.4,0c0,0,0.1,0,0.1,0c0.2,0,0.3,0,0.5,0c0,0,0.1,0,0.1,0c0.2,0,0.4,0,0.6,0c0,0,0,0,0.1,0
		c0.2,0,0.3,0,0.5,0c0,0,0.1,0,0.1,0c0.1,0,0.3,0,0.4,0c0.1,0,0.1,0,0.2,0c0.1,0,0.3,0,0.4,0c0,0,0.1,0,0.1,0c0.2,0,0.3,0,0.5,0.1
		c0,0,0,0,0,0c0.2,0,0.3,0,0.5,0.1c0,0,0.1,0,0.1,0c0.1,0,0.2,0,0.4,0c0.1,0,0.1,0,0.2,0c0.1,0,0.2,0,0.4,0.1c0,0,0.1,0,0.1,0
		c0.2,0,0.3,0.1,0.5,0.1c0.7,0.1,1.6,0.2,2.5,0.2c4.9,0,11.8-2.2,16.5-6.5c0,0-1.8-2.7-3.7-10.6c-0.3-1.4-0.6-2.9-1-4.7
		C118.2,192.4,117.8,189.8,117.4,186.8z"/>
	<path class="st10" d="M94.6,184.6C94.6,184.6,94.7,184.6,94.6,184.6c12.3,0,22.2-1.4,22.2-3.2c0-1.7-9.9-3.2-22.2-3.2
		s-22.2,1.4-22.2,3.2c0,0,0,0,0,0C72.6,183.2,82.4,184.6,94.6,184.6z"/>
	<polygon class="st7" points="62.4,182.4 62.4,182.4 62.4,182.4 	"/>
	<path class="st7" d="M74.8,188.7l-2.3-4l-2.5-4.3c0.4,0.8-1,1.9-3.1,2.4c-2.1,0.5-4.1,0.3-4.4-0.4l8.8,14.6l1.7,2.8
		C77.2,193.9,74.8,188.7,74.8,188.7z"/>
	<path class="st11" d="M66.9,182.8c2.1-0.5,3.5-1.6,3.1-2.4c-0.4-0.8-2.3-1-4.4-0.4c-2.1,0.5-3.5,1.6-3.1,2.4c0,0,0,0,0,0
		c0,0,0,0,0,0c0,0,0,0,0,0C62.8,183.2,64.8,183.4,66.9,182.8z"/>
</g>
<g>
	<path class="st7" d="M213.9,158.1l-2.3-1.7c-1.8,0.9-3.6,2.9-4.6,4.1c0.3,2.3,0.6,4.3,0.9,6.1C210,161.2,213.9,158.1,213.9,158.1z"
		/>
	<path class="st8" d="M190.4,182.9C190.4,182.9,190.4,182.9,190.4,182.9C190.4,182.9,190.4,182.9,190.4,182.9z"/>
	<path class="st8" d="M192,182.9c0,0-0.1,0-0.1,0C191.9,182.9,191.9,182.9,192,182.9z"/>
	<path class="st8" d="M189.9,182.9C189.9,182.9,189.8,182.9,189.9,182.9C189.8,182.9,189.9,182.9,189.9,182.9z"/>
	<path class="st8" d="M191.4,182.9C191.4,182.9,191.5,182.9,191.4,182.9C191.5,182.9,191.4,182.9,191.4,182.9z"/>
	<path class="st8" d="M198.6,183.5c3.8,0,9.2-1.7,12.8-5.1c0,0-1.4-2.1-2.8-8.2c1.4,6.1,2.8,8.2,2.8,8.2
		C207.8,181.8,202.4,183.5,198.6,183.5z"/>
	<path class="st8" d="M192.4,182.9c0,0-0.1,0-0.1,0C192.4,182.9,192.4,182.9,192.4,182.9z"/>
	<path class="st8" d="M189.3,158.8c-9.4,0-17.1-1.1-17.1-2.4c0,0.1,0,1-0.1,2.6l1.8,3.1c0,0,1.9,4-1.4,8.6l-1.3-2.2
		c-0.7,4-1.9,8-3.9,10c0,0,6.7,5.4,14.7,4.9c3.1-0.2,5.4-0.3,7.3-0.4c0,0,0,0,0,0V158.8z"/>
	<path class="st8" d="M195.5,183.2c0,0-0.1,0-0.1,0C195.4,183.1,195.5,183.1,195.5,183.2z"/>
	<path class="st8" d="M195.9,183.2c0,0-0.1,0-0.1,0C195.8,183.2,195.9,183.2,195.9,183.2z"/>
	<path class="st8" d="M194.2,183c0,0-0.1,0-0.1,0C194.1,183,194.2,183,194.2,183z"/>
	<path class="st8" d="M194.6,183C194.6,183,194.6,183,194.6,183C194.6,183,194.6,183,194.6,183z"/>
	<path class="st8" d="M195,183.1C195,183.1,195,183.1,195,183.1C195,183.1,195,183.1,195,183.1z"/>
	<path class="st8" d="M196.3,183.3c0,0-0.1,0-0.1,0C196.2,183.3,196.3,183.3,196.3,183.3z"/>
	<path class="st8" d="M192.9,182.9C192.8,182.9,192.8,182.9,192.9,182.9C192.8,182.9,192.8,182.9,192.9,182.9z"/>
	<path class="st8" d="M193.3,183C193.3,183,193.3,183,193.3,183C193.3,183,193.3,183,193.3,183z"/>
	<path class="st8" d="M193.8,183c0,0-0.1,0-0.1,0C193.7,183,193.8,183,193.8,183z"/>
	<path class="st9" d="M207,160.6c-0.2-1.3-0.3-2.7-0.4-4.2h0c0,1.4-7.7,2.5-17.2,2.5c0,0,0,0-0.1,0V183c0,0,0,0,0,0
		c0.2,0,0.3,0,0.5,0c0,0,0.1,0,0.1,0c0.1,0,0.3,0,0.4,0c0,0,0.1,0,0.1,0c0.3,0,0.7,0,1,0c0,0,0,0,0,0c0.1,0,0.3,0,0.4,0
		c0,0,0.1,0,0.1,0c0.1,0,0.2,0,0.3,0c0,0,0.1,0,0.1,0c0.1,0,0.2,0,0.4,0c0,0,0,0,0.1,0c0.1,0,0.3,0,0.4,0c0,0,0,0,0,0
		c0.1,0,0.2,0,0.4,0c0,0,0.1,0,0.1,0c0.1,0,0.2,0,0.3,0c0,0,0.1,0,0.1,0c0.1,0,0.2,0,0.3,0c0,0,0.1,0,0.1,0c0.1,0,0.3,0,0.4,0
		c0,0,0,0,0,0c0.1,0,0.2,0,0.4,0c0,0,0.1,0,0.1,0c0.1,0,0.2,0,0.3,0c0,0,0.1,0,0.1,0c0.1,0,0.2,0,0.3,0c0,0,0.1,0,0.1,0
		c0.1,0,0.3,0,0.4,0.1c0.6,0.1,1.2,0.2,1.9,0.1c3.8,0,9.2-1.7,12.8-5.1c0,0-1.4-2.1-2.8-8.2c-0.2-1.1-0.5-2.3-0.7-3.6
		C207.5,164.9,207.2,162.8,207,160.6z"/>
	<path class="st10" d="M189.3,158.8C189.3,158.8,189.3,158.8,189.3,158.8c9.6,0,17.2-1.1,17.2-2.5s-7.7-2.5-17.2-2.5
		c-9.5,0-17.2,1.1-17.2,2.5c0,0,0,0,0,0C172.2,157.7,179.8,158.8,189.3,158.8z"/>
	<polygon class="st7" points="164.3,157.1 164.3,157.1 164.3,157.1 	"/>
	<path class="st7" d="M173.9,162l-1.8-3.1l-1.9-3.3c0.3,0.6-0.8,1.4-2.4,1.9c-1.6,0.4-3.1,0.3-3.4-0.3l6.8,11.3l1.3,2.2
		C175.8,166,173.9,162,173.9,162z"/>
	<path class="st11" d="M167.8,157.5c1.6-0.4,2.7-1.3,2.4-1.9c-0.3-0.6-1.8-0.8-3.4-0.3c-1.6,0.4-2.7,1.3-2.4,1.9c0,0,0,0,0,0
		c0,0,0,0,0,0c0,0,0,0,0,0C164.6,157.7,166.2,157.9,167.8,157.5z"/>
</g>
<g>
	<path class="st7" d="M113.5,146.5l-1.2-0.9c-0.9,0.5-1.8,1.5-2.3,2.1c0.1,1.2,0.3,2.2,0.5,3.1C111.6,148,113.5,146.5,113.5,146.5z"
		/>
	<path class="st8" d="M101.7,159C101.7,159,101.6,159,101.7,159C101.6,159,101.7,159,101.7,159z"/>
	<path class="st8" d="M102.5,159C102.4,159,102.4,159,102.5,159C102.4,159,102.4,159,102.5,159z"/>
	<path class="st8" d="M101.4,159C101.4,159,101.4,159,101.4,159C101.4,159,101.4,159,101.4,159z"/>
	<path class="st8" d="M102.2,159C102.2,159,102.2,159,102.2,159C102.2,159,102.2,159,102.2,159z"/>
	<path class="st8" d="M105.8,159.3c1.9,0,4.6-0.8,6.5-2.6c0,0-0.7-1.1-1.4-4.1c0.7,3.1,1.4,4.1,1.4,4.1
		C110.5,158.5,107.8,159.3,105.8,159.3z"/>
	<path class="st8" d="M102.7,159C102.7,159,102.7,159,102.7,159C102.7,159,102.7,159,102.7,159z"/>
	<path class="st8" d="M101.1,146.8c-4.8,0-8.6-0.6-8.6-1.2c0,0,0,0.5,0,1.3l0.9,1.6c0,0,1,2-0.7,4.3l-0.7-1.1c-0.4,2-1,4.1-2,5.1
		c0,0,3.4,2.7,7.4,2.5c1.5-0.1,2.7-0.2,3.7-0.2c0,0,0,0,0,0V146.8z"/>
	<path class="st8" d="M104.2,159.1C104.2,159.1,104.2,159.1,104.2,159.1C104.2,159.1,104.2,159.1,104.2,159.1z"/>
	<path class="st8" d="M104.5,159.2C104.4,159.2,104.4,159.2,104.5,159.2C104.4,159.2,104.4,159.2,104.5,159.2z"/>
	<path class="st8" d="M103.6,159.1C103.6,159.1,103.6,159.1,103.6,159.1C103.6,159.1,103.6,159.1,103.6,159.1z"/>
	<path class="st8" d="M103.8,159.1C103.8,159.1,103.8,159.1,103.8,159.1C103.8,159.1,103.8,159.1,103.8,159.1z"/>
	<path class="st8" d="M104,159.1C104,159.1,104,159.1,104,159.1C104,159.1,104,159.1,104,159.1z"/>
	<path class="st8" d="M104.7,159.2C104.6,159.2,104.6,159.2,104.7,159.2C104.6,159.2,104.6,159.2,104.7,159.2z"/>
	<path class="st8" d="M102.9,159C102.9,159,102.9,159,102.9,159C102.9,159,102.9,159,102.9,159z"/>
	<path class="st8" d="M103.1,159C103.1,159,103.1,159,103.1,159C103.1,159,103.1,159,103.1,159z"/>
	<path class="st8" d="M103.4,159.1C103.4,159.1,103.3,159.1,103.4,159.1C103.3,159.1,103.4,159.1,103.4,159.1z"/>
	<path class="st9" d="M110,147.7c-0.1-0.7-0.2-1.4-0.2-2.1h0c0,0.7-3.9,1.2-8.7,1.2c0,0,0,0,0,0v12.2c0,0,0,0,0,0c0.1,0,0.2,0,0.3,0
		c0,0,0,0,0,0c0.1,0,0.1,0,0.2,0c0,0,0,0,0,0c0.2,0,0.3,0,0.5,0c0,0,0,0,0,0c0.1,0,0.1,0,0.2,0c0,0,0,0,0.1,0c0.1,0,0.1,0,0.2,0
		c0,0,0,0,0.1,0c0.1,0,0.1,0,0.2,0c0,0,0,0,0,0c0.1,0,0.1,0,0.2,0c0,0,0,0,0,0c0.1,0,0.1,0,0.2,0c0,0,0,0,0.1,0c0,0,0.1,0,0.1,0
		c0,0,0,0,0.1,0c0.1,0,0.1,0,0.2,0c0,0,0,0,0,0c0.1,0,0.1,0,0.2,0c0,0,0,0,0,0c0.1,0,0.1,0,0.2,0c0,0,0,0,0.1,0c0,0,0.1,0,0.1,0
		c0,0,0,0,0.1,0c0,0,0.1,0,0.1,0c0,0,0,0,0.1,0c0.1,0,0.1,0,0.2,0c0.3,0.1,0.6,0.1,1,0.1c1.9,0,4.6-0.8,6.5-2.6c0,0-0.7-1.1-1.4-4.1
		c-0.1-0.5-0.3-1.2-0.4-1.8C110.3,149.9,110.2,148.9,110,147.7z"/>
	<path class="st10" d="M101.1,146.8C101.1,146.8,101.1,146.8,101.1,146.8c4.8,0,8.7-0.6,8.7-1.2c0-0.7-3.9-1.2-8.7-1.2
		c-4.8,0-8.7,0.6-8.7,1.2c0,0,0,0,0,0C92.5,146.3,96.3,146.8,101.1,146.8z"/>
	<polygon class="st7" points="88.5,146 88.5,146 88.5,146 	"/>
	<path class="st7" d="M93.3,148.5l-0.9-1.6l-1-1.7c0.1,0.3-0.4,0.7-1.2,0.9c-0.8,0.2-1.6,0.1-1.7-0.2l3.4,5.7l0.7,1.1
		C94.3,150.5,93.3,148.5,93.3,148.5z"/>
	<path class="st11" d="M90.2,146.2c0.8-0.2,1.4-0.6,1.2-0.9c-0.1-0.3-0.9-0.4-1.7-0.2c-0.8,0.2-1.4,0.6-1.2,0.9c0,0,0,0,0,0
		c0,0,0,0,0,0c0,0,0,0,0,0C88.6,146.3,89.4,146.4,90.2,146.2z"/>
</g>
<path class="st4" d="M43.1,245.5c30.3-14.1,65.9-31.8,97-50.4c57.4-34.3,117.5-55.4,147.3-64.7c0.4,4.5,0.7,9.1,0.7,13.7
	c0,79.2-64.2,143.5-143.5,143.5C104.9,287.6,69,271.5,43.1,245.5z"/>
<path class="st6" d="M288,144.1c0-4.6-0.2-9.2-0.7-13.7c-29,9.1-86.7,29.3-142.7,62v95.2C223.8,287.5,288,223.3,288,144.1z"/>
</svg>
