<?xml version="1.0" encoding="utf-8"?>
<!-- Generator: Adobe Illustrator 23.0.3, SVG Export Plug-In . SVG Version: 6.00 Build 0)  -->
<svg version="1.1" id="Layer_1" xmlns="http://www.w3.org/2000/svg" xmlns:xlink="http://www.w3.org/1999/xlink" x="0px" y="0px"
	 viewBox="0 0 288 288" style="enable-background:new 0 0 288 288;" xml:space="preserve">
<style type="text/css">
	.st0{fill:#AB5A1D;}
	.st1{fill:#783F16;}
	.st2{fill:#FE8205;}
	.st3{fill:#FFA300;}
	.st4{fill:#BDF052;}
	.st5{fill:#93D632;}
	.st6{fill:#FFC200;}
	.st7{fill:#FFD400;}
</style>
<path class="st0" d="M288,144c0,79.5-64.5,144-144,144S0,223.5,0,144S64.5,0,144,0S288,64.5,288,144z"/>
<path class="st1" d="M287.7,153.2L235.6,101l-11.1,15.4l-70.6-70.6l-17.8,50.9L54.2,216.1l70.6,70.6c6.3,0.8,12.7,1.3,19.2,1.3
	C220.4,288,283,228.4,287.7,153.2z"/>
<path class="st2" d="M255.4,157.7c0-38.8-21.7-70.2-48.5-70.2c-26.8,0-48.5,31.4-48.5,70.2s21.7,70.2,48.5,70.2
	C233.7,227.9,255.4,196.5,255.4,157.7z"/>
<path class="st3" d="M129.6,157.7c0-38.8-21.7-70.2-48.5-70.2c-26.8,0-48.5,31.4-48.5,70.2s21.7,70.2,48.5,70.2
	C107.9,227.9,129.6,196.5,129.6,157.7z"/>
<path class="st4" d="M134.1,45.9h19.7v56.3h-19.7V45.9z"/>
<path class="st5" d="M143.8,45.9h10.1v56.3h-10.1V45.9z"/>
<path class="st6" d="M153.9,157.7c0-38.8-21.7-70.2-48.5-70.2c-26.8,0-48.5,31.4-48.5,70.2s21.7,70.2,48.5,70.2
	C132.2,227.9,153.9,196.5,153.9,157.7z"/>
<path class="st3" d="M231.1,157.7c0-38.8-21.7-70.2-48.5-70.2c-26.8,0-48.5,31.4-48.5,70.2s21.7,70.2,48.5,70.2
	C209.4,227.9,231.1,196.5,231.1,157.7z"/>
<path class="st7" d="M195.2,157.7c0-41-22.9-74.2-51.2-74.2s-51.2,33.2-51.2,74.2s22.9,74.2,51.2,74.2S195.2,198.7,195.2,157.7z"/>
<path class="st6" d="M144,83.5c-0.1,0-0.2,0-0.2,0v148.4c0.1,0,0.2,0,0.2,0c28.3,0,51.2-33.2,51.2-74.2
	C195.2,116.7,172.3,83.5,144,83.5z"/>
</svg>
