<?xml version="1.0" encoding="utf-8"?>
<!-- Generator: Adobe Illustrator 23.0.3, SVG Export Plug-In . SVG Version: 6.00 Build 0)  -->
<svg version="1.1" id="Layer_1" xmlns="http://www.w3.org/2000/svg" xmlns:xlink="http://www.w3.org/1999/xlink" x="0px" y="0px"
	 viewBox="0 0 288 288" style="enable-background:new 0 0 288 288;" xml:space="preserve">
<style type="text/css">
	.st0{fill:#AB5A1D;}
	.st1{fill:#783F16;}
	.st2{fill:#FFD400;}
	.st3{fill:#FFA300;}
	.st4{fill:#FDBA12;}
	.st5{fill:#FFE85F;}
	.st6{fill:#FFE000;}
</style>
<path class="st0" d="M288,144c0,79.5-64.5,144-144,144S0,223.5,0,144S64.5,0,144,0S288,64.5,288,144z"/>
<path class="st1" d="M144,288c79.5,0,144-64.5,144-144c0-4.7-0.2-9.3-0.7-13.8l-39.8-39.8l-9.5,12.8l-62.8-62.8l-24.8,20.4
	l-12.9-12.9L120.3,65l20.5,20.3l-19,9.3l23.1,23.1l0.2,14.7l-42.1-42.1l-20.6,24.7l-19-19l-17.1,17.1l23.6,23.6L47,142.4l24.1,24.1
	l-22.5,6L71.1,195l-22.6,6.4l23.6,23.6l-0.3,43.6C93.1,280.9,117.7,288,144,288z"/>
<path class="st2" d="M144,64.2c0-13.2-10.7-23.9-23.9-23.9h-7.3v7.3c0,13.1,10.5,23.7,23.5,23.9v3.4c-4.3-3.9-9.9-6.3-16.1-6.3h-7.3
	V76c0,13.1,10.5,23.7,23.5,23.9v3.6c-4.2-3.9-9.9-6.3-16.1-6.3h-7.3v7.3c0,13,10.5,23.6,23.5,23.9v4c-4.2-3.9-9.9-6.3-16.1-6.3h-7.3
	v7.3c0,13.1,10.5,23.7,23.5,23.9v130.4c2.6,0.1,5.2,0.2,7.8,0.2s5.2-0.1,7.8-0.2V157.4c13-0.2,23.5-10.8,23.5-23.9v-7.3h-7.3
	c-6.2,0-11.9,2.4-16.1,6.3v-4c13-0.2,23.5-10.8,23.5-23.9v-7.3h-7.3c-6.2,0-11.9,2.4-16.1,6.3v-3.6c13-0.2,23.5-10.8,23.5-23.9v-7.3
	h-7.3c-6.2,0-11.9,2.4-16.1,6.3v-3.4c13-0.2,23.5-10.8,23.5-23.9v-7.3h-7.3C154.7,40.3,144,51,144,64.2z"/>
<path class="st3" d="M143.8,288c0.1,0,0.2,0,0.2,0c2.6,0,5.2-0.1,7.8-0.2V157.4c13-0.2,23.5-10.8,23.5-23.9v-7.3h-7.3
	c-6.2,0-11.9,2.4-16.1,6.3v-4c13-0.2,23.5-10.8,23.5-23.9v-7.3h-7.3c-6.2,0-11.9,2.4-16.1,6.3v-3.6c13-0.2,23.5-10.8,23.5-23.9v-7.3
	h-7.3c-6.2,0-11.9,2.4-16.1,6.3v-3.4c13-0.2,23.5-10.8,23.5-23.9v-7.3h-7.3C154.7,40.3,144,51,144,64.2L143.8,288z"/>
<path class="st2" d="M247.5,176.2h-7.3c-6.2,0-11.9,2.4-16.1,6.3v-4c13-0.2,23.5-10.8,23.5-23.9v-7.3h-7.3c-6.2,0-11.9,2.4-16.1,6.3
	v-3.6c13-0.2,23.5-10.8,23.5-23.9v-7.3h-7.3c-6.2,0-11.9,2.4-16.1,6.3v-3.4c13-0.2,23.5-10.8,23.5-23.9v-7.3h-7.3
	c-13.2,0-23.9,10.7-23.9,23.9c0-13.2-10.7-23.9-23.9-23.9h-7.3v7.3c0,13,10.5,23.7,23.5,23.9v3.4c-4.2-3.9-9.9-6.3-16.1-6.3h-7.3
	v7.3c0,13.1,10.5,23.7,23.5,23.9v3.6c-4.3-3.9-9.9-6.3-16.1-6.3h-7.3v7.3c0,13.1,10.5,23.7,23.5,23.9v4c-4.2-3.9-9.9-6.3-16.1-6.3
	h-7.3v7.3c0,13,10.5,23.7,23.5,23.9v65.3c5.4-2.7,10.6-5.7,15.5-9.1v-56.3c13-0.2,23.5-10.8,23.5-23.9L247.5,176.2L247.5,176.2z"/>
<path class="st4" d="M216.2,268.6c2.7-1.6,5.3-3.2,7.9-4.9v-56.3c13-0.2,23.5-10.8,23.5-23.9v-7.3h-7.3c-6.2,0-11.9,2.4-16.1,6.3v-4
	c13-0.2,23.5-10.8,23.5-23.9v-7.3h-7.3c-6.2,0-11.9,2.4-16.1,6.3v-3.6c13-0.2,23.5-10.8,23.5-23.9v-7.3h-7.3
	c-6.2,0-11.9,2.4-16.1,6.3v-3.4c13-0.2,23.5-10.8,23.5-23.9v-7.3h-7.3c-13.2,0-23.9,10.7-23.9,23.9L216.2,268.6z"/>
<path class="st5" d="M71.7,114.2c0-13.2-10.7-23.9-23.9-23.9h-7.3v7.3c0,13.1,10.5,23.7,23.5,23.9v3.4c-4.3-3.9-9.9-6.3-16.1-6.3
	h-7.3v7.3c0,13.1,10.5,23.7,23.5,23.9v3.6c-4.2-3.9-9.9-6.3-16.1-6.3h-7.3v7.3c0,13,10.5,23.6,23.5,23.9v4
	c-4.2-3.9-9.9-6.3-16.1-6.3h-7.3v7.3c0,13.1,10.5,23.7,23.5,23.9v56.3c5,3.3,10.2,6.4,15.5,9.1v-65.3c13-0.2,23.5-10.8,23.5-23.9
	v-7.3h-7.3c-6.2,0-11.9,2.4-16.1,6.3v-4c13-0.2,23.5-10.8,23.5-23.9v-7.3h-7.3c-6.2,0-11.9,2.4-16.1,6.3v-3.6
	c13-0.2,23.5-10.8,23.5-23.9v-7.3h-7.3c-6.2,0-11.9,2.4-16.1,6.3v-3.4c13-0.2,23.5-10.8,23.5-23.9v-7.3h-7.3
	C82.4,90.3,71.7,101,71.7,114.2z"/>
<path class="st6" d="M102.9,97.7v-7.3h-7.3c-12.5,0-22.8,9.6-23.8,21.8l-0.1,2.1l0.1,154.4c2.5,1.5,5.1,2.8,7.7,4.2v-65.3
	c13-0.2,23.5-10.8,23.5-23.9v-7.3h-7.3c-6.2,0-11.9,2.4-16.1,6.3v-4c13-0.2,23.5-10.8,23.5-23.9v-7.3h-7.3c-6.2,0-11.9,2.4-16.1,6.3
	v-3.6c13-0.2,23.5-10.8,23.5-23.9v-7.3h-7.3c-6.2,0-11.9,2.4-16.1,6.3v-3.4C92.5,121.3,102.9,110.7,102.9,97.7z"/>
</svg>
