<?xml version="1.0" encoding="utf-8"?>
<!-- Generator: Adobe Illustrator 23.0.3, SVG Export Plug-In . SVG Version: 6.00 Build 0)  -->
<svg version="1.1" id="Layer_1" xmlns="http://www.w3.org/2000/svg" xmlns:xlink="http://www.w3.org/1999/xlink" x="0px" y="0px"
	 viewBox="0 0 288 288" style="enable-background:new 0 0 288 288;" xml:space="preserve">
<style type="text/css">
	.st0{fill:#273B7A;}
	.st1{fill:#121149;}
	.st2{fill:#FF5419;}
	.st3{fill:#B54324;}
	.st4{fill:#A02E13;}
	.st5{fill:#EAA22F;}
	.st6{fill:#E09112;}
	.st7{fill:#FFFFFF;}
	.st8{fill:#D0D1D3;}
	.st9{fill:#D35933;}
</style>
<circle class="st0" cx="144" cy="144" r="144"/>
<path class="st1" d="M270.9,212.1l-84.5-84.5l-69.6,59.5L72.2,240l45.6,45.6c8.5,1.6,17.2,2.4,26.2,2.4
	C198.9,288,246.6,257.3,270.9,212.1z"/>
<path class="st2" d="M199.2,185c0,0,8.5-12.4,17.5-16.7l7.5,5.6c0,0-17.9,14.1-22.8,38.8L199.2,185z"/>
<path class="st3" d="M88.2,168c0,0,0.1,56-16,72c0,0,21.9,17.5,48,16c26.1-1.5,36-2.2,48,0c12,2.2,34-2.9,48-16c0,0-11.1-16.2-16-72
	H88.2z"/>
<path class="st4" d="M200.2,168H144v86.8c10.1-0.4,16.8-0.1,24.2,1.2c12,2.2,34-2.9,48-16C216.2,240,205.2,223.8,200.2,168z"/>
<ellipse class="st5" cx="144.2" cy="168" rx="56" ry="8"/>
<path class="st6" d="M144.2,160c-0.1,0-0.1,0-0.2,0v16c0.1,0,0.1,0,0.2,0c30.9,0,56-3.6,56-8S175.2,160,144.2,160z"/>
<path class="st5" d="M98,62.1l1.9-1.9c1.9-1.9,5.1-1.9,7,0l79.1,79.1c1.9,1.9,1.9,5.1,0,7l-1.9,1.9c-1.9,1.9-5.1,1.9-7,0L98,69
	C96,67.1,96,64,98,62.1z"/>
<path class="st7" d="M187,135c2-1.6,1.8-5.1-0.6-7.5l-8.9-8.9c-2.3-2.3-5.7-2.6-7.4-0.7c-17.2,19.6-57.1,20.2-57.1,20.2
	c2.3,13.2,7.5,22.5,13.6,29.1H163C170.3,150.1,181.2,139.7,187,135z"/>
<path class="st8" d="M186.4,127.6l-4.5-4.5l-54.3,44.2H163c7.3-17.2,18.2-27.6,24-32.2C189.1,133.4,188.8,130,186.4,127.6z"/>
<path class="st9" d="M163,167.2c-9.8-3.1-25.2-10.9-32.7-30.9c-9.8,1.7-17.3,1.8-17.3,1.8c2.3,13.2,7.5,22.5,13.6,29.1L163,167.2
	C163,167.3,163,167.2,163,167.2z"/>
<path class="st3" d="M127.7,167.3H163c0,0,0,0,0-0.1c-5.8-1.8-13.6-5.3-20.5-12L127.7,167.3z"/>
<path class="st2" d="M81.8,165.5l12.1,21c0,0,6.1,13.1-4.7,28l-26.5-44L81.8,165.5z"/>
<path class="st6" d="M81.8,165.5c0.9,2-2.6,4.7-7.9,6.1c-5.3,1.4-10.3,0.9-11.2-1.1c-0.9-2,2.6-4.7,7.9-6.1
	C75.9,163,80.9,163.5,81.8,165.5z"/>
</svg>
